  0
SECTION
  2
ENTITIES
999
DXF created from EnergyPlus
999
Program Version,EnergyPlus, Version 9.4.0-998c4b761e, YMD=2024.08.06 02:13
999
Polygon Action,ThickPolyline
999
Color Scheme,Default
999
Text - True North
  0
TEXT
  8
1
  6
Continuous
 62
  3
 10
      -11.60000
 20
        2.40000
 30
        0.10000
 40
 .25
  1
True North
 41
 0.0
  7
MONOTXT
210
0.0
220
0.0
230
1.0
999
Text - Building Title
  0
TEXT
  8
1
  6
Continuous
 62
  3
 10
      -14.60000
 20
       -1.60000
 30
        0.10000
 40
 .4
  1
Building - Large_Office
 41
 0.0
  7
MONOTXT
210
0.0
220
0.0
230
1.0
999
North Arrow Stem
  0
3DFACE
  8
1
 62
  3
 10
      -10.60000
 20
        2.40000
 30
        0.10000
 11
      -10.60000
 21
        2.40000
 31
        0.00000
 12
      -10.60000
 22
       -0.60000
 32
        0.00000
 13
      -10.60000
 23
       -0.60000
 33
        0.10000
999
North Arrow Head 1
  0
3DFACE
  8
1
 62
  3
 10
      -10.60000
 20
        2.40000
 30
        0.10000
 11
      -10.60000
 21
        2.40000
 31
        0.00000
 12
      -11.10000
 22
        1.53398
 32
        0.00000
 13
      -11.10000
 23
        1.53398
 33
        0.10000
999
North Arrow Head 2
  0
3DFACE
  8
1
 62
  3
 10
      -10.60000
 20
        2.40000
 30
        0.10000
 11
      -10.60000
 21
        2.40000
 31
        0.00000
 12
      -10.10000
 22
        1.53398
 32
        0.00000
 13
      -10.10000
 23
        1.53398
 33
        0.10000
999
North Arrow Side 1
  0
3DFACE
  8
1
 62
  3
 10
      -11.10000
 20
        3.90000
 30
        0.10000
 11
      -11.10000
 21
        3.90000
 31
        0.00000
 12
      -11.10000
 22
        2.90000
 32
        0.00000
 13
      -11.10000
 23
        2.90000
 33
        0.10000
999
North Arrow Side 2
  0
3DFACE
  8
1
 62
  3
 10
      -11.10000
 20
        3.90000
 30
        0.10000
 11
      -11.10000
 21
        3.90000
 31
        0.00000
 12
      -10.10000
 22
        2.90000
 32
        0.00000
 13
      -10.10000
 23
        2.90000
 33
        0.10000
999
North Arrow Side 3
  0
3DFACE
  8
1
 62
  3
 10
      -10.10000
 20
        3.90000
 30
        0.10000
 11
      -10.10000
 21
        3.90000
 31
        0.00000
 12
      -10.10000
 22
        2.90000
 32
        0.00000
 13
      -10.10000
 23
        2.90000
 33
        0.10000
999
Zone Names
999
Zone=1:CORE_BOT
999
Zone=2:CORE_MID1
999
Zone=3:CORE_MID2
999
Zone=4:CORE_MID3
999
Zone=5:CORE_MID4
999
Zone=6:CORE_TOP
999
Zone=7:ZONE_BOT_N
999
Zone=8:ZONE_BOT_E
999
Zone=9:ZONE_BOT_S
999
Zone=10:ZONE_BOT_W
999
Zone=11:ZONE_MID_N
999
Zone=12:ZONE_MID_E
999
Zone=13:ZONE_MID_S
999
Zone=14:ZONE_MID_W
999
Zone=15:ZONE_TOP_N
999
Zone=16:ZONE_TOP_E
999
Zone=17:ZONE_TOP_S
999
Zone=18:ZONE_TOP_W
999
Zone=19:BOT_PLENUM
999
Zone=20:MID_PLENUM
999
Zone=21:TOP_PLENUM
999
Zone=22:BOT_TOILET
999
Zone=23:BOT_STAIRS
999
Zone=24:MID_TOILET
999
Zone=25:MID_STAIRS
999
Zone=26:TOP_TOILET
999
Zone=27:TOP_STAIRS
999
Zone=28:BOT_PARKING
999
Zone=29:BOT_PARKING_CORE
999
Zone=30:MID_PARKING
999
Zone=31:MID_PARKING_CORE
999
Zone=32:TOP_PARKING
999
Zone=33:TOP_PARKING_CORE
999
CORE_BOT:CORE_BOT_WALL_S
  0
3DFACE
  8
CORE_BOT
 62
 43
 10
        8.46421
 20
        4.57320
 30
       14.80000
 11
        8.46421
 21
        4.57320
 31
       12.00000
 12
       32.84340
 22
        4.57320
 32
       12.00000
 13
       32.84340
 23
        4.57320
 33
       14.80000
999
CORE_BOT:CORE_BOT_WALL_N
  0
3DFACE
  8
CORE_BOT
 62
 43
 10
       32.84340
 20
       32.84350
 30
       14.80000
 11
       32.84340
 21
       32.84350
 31
       12.00000
 12
        8.46421
 22
       32.84350
 32
       12.00000
 13
        8.46421
 23
       32.84350
 33
       14.80000
999
CORE_BOT:CORE_BOT_WALL_E
  0
3DFACE
  8
CORE_BOT
 62
 43
 10
       32.84340
 20
        4.57320
 30
       14.80000
 11
       32.84340
 21
        4.57320
 31
       12.00000
 12
       32.84340
 22
       32.84350
 32
       12.00000
 13
       32.84340
 23
       32.84350
 33
       14.80000
999
CORE_BOT:iz-BOT_TOILET_E
  0
3DFACE
  8
CORE_BOT
 62
 43
 10
        8.46421
 20
       32.84350
 30
       14.80000
 11
        8.46421
 21
       32.84350
 31
       12.00000
 12
        8.46421
 22
       19.99336
 32
       12.00000
 13
        8.46421
 23
       19.99336
 33
       14.80000
999
CORE_BOT:iz-BOT_STAIRS_E
  0
3DFACE
  8
CORE_BOT
 62
 43
 10
        8.46421
 20
       19.99336
 30
       14.80000
 11
        8.46421
 21
       19.99336
 31
       12.00000
 12
        8.46421
 22
        4.57320
 32
       12.00000
 13
        8.46421
 23
        4.57320
 33
       14.80000
999
CORE_BOT:CEILING-CORE_BOT-AUTOCREATED
  0
3DFACE
  8
CORE_BOT
 62
  8
 10
       12.00001
 20
       32.84350
 30
       12.00000
 11
       12.00001
 21
        4.57320
 31
       12.00000
 12
        8.46421
 22
        4.57320
 32
       12.00000
 13
        8.46421
 23
       32.84350
 33
       12.00000
999
CORE_BOT:CORE_BOT_FLOOR
  0
3DFACE
  8
CORE_BOT
 62
  8
 10
       32.84340
 20
       32.84350
 30
       12.00000
 11
       32.84340
 21
        4.57320
 31
       12.00000
 12
       25.41659
 22
        4.57320
 32
       12.00000
 13
       25.41659
 23
       32.84350
 33
       12.00000
999
CORE_BOT:CORE_BOT_FLOOR_3
  0
3DFACE
  8
CORE_BOT
 62
  8
 10
       25.41659
 20
       12.00001
 30
       12.00000
 11
       25.41659
 21
        4.57320
 31
       12.00000
 12
       12.00001
 22
        4.57320
 32
       12.00000
 13
       12.00001
 23
       12.00001
 33
       12.00000
999
CORE_BOT:CORE_BOT_FLOOR_4
  0
3DFACE
  8
CORE_BOT
 62
  8
 10
       25.41659
 20
       32.84350
 30
       12.00000
 11
       25.41659
 21
       25.41659
 31
       12.00000
 12
       12.00001
 22
       25.41659
 32
       12.00000
 13
       12.00001
 23
       32.84350
 33
       12.00000
999
CORE_BOT:iz-TOP_PARKING_SURFACE_INSIDE_B_CEILING
  0
3DFACE
  8
CORE_BOT
 62
  8
 10
       25.41659
 20
       25.41659
 30
       12.00000
 11
       25.41659
 21
       12.00001
 31
       12.00000
 12
       12.00001
 22
       12.00001
 32
       12.00000
 13
       12.00001
 23
       25.41659
 33
       12.00000
999
CORE_BOT:CORE_BOT_CEILING
  0
3DFACE
  8
CORE_BOT
 62
 15
 10
        8.46421
 20
       32.84350
 30
       14.80000
 11
        8.46421
 21
        4.57320
 31
       14.80000
 12
       32.84340
 22
        4.57320
 32
       14.80000
 13
       32.84340
 23
       32.84350
 33
       14.80000
999
CORE_MID1:CORE_MID1_WALL_S
  0
3DFACE
  8
CORE_MID1
 62
 43
 10
       20.65380
 20
        4.57320
 30
       43.25600
 11
       20.65380
 21
        4.57320
 31
       40.45600
 12
       32.84340
 22
        4.57320
 32
       40.45600
 13
       32.84340
 23
        4.57320
 33
       43.25600
999
CORE_MID1:CORE_MID1_WALL_N
  0
3DFACE
  8
CORE_MID1
 62
 43
 10
       32.84340
 20
       18.70835
 30
       43.25600
 11
       32.84340
 21
       18.70835
 31
       40.45600
 12
       20.65380
 22
       18.70835
 32
       40.45600
 13
       20.65380
 23
       18.70835
 33
       43.25600
999
CORE_MID1:CORE_MID1_WALL_E
  0
3DFACE
  8
CORE_MID1
 62
 43
 10
       32.84340
 20
        4.57320
 30
       43.25600
 11
       32.84340
 21
        4.57320
 31
       40.45600
 12
       32.84340
 22
       18.70835
 32
       40.45600
 13
       32.84340
 23
       18.70835
 33
       43.25600
999
CORE_MID1:CORE_MID1_WALL_W
  0
3DFACE
  8
CORE_MID1
 62
 43
 10
       20.65380
 20
       18.70835
 30
       43.25600
 11
       20.65380
 21
       18.70835
 31
       40.45600
 12
       20.65380
 22
        4.57320
 32
       40.45600
 13
       20.65380
 23
        4.57320
 33
       43.25600
999
CORE_MID1:CORE_MID1_FLOOR
  0
3DFACE
  8
CORE_MID1
 62
  8
 10
       32.84340
 20
       18.70835
 30
       40.45600
 11
       32.84340
 21
        4.57320
 31
       40.45600
 12
       20.65380
 22
        4.57320
 32
       40.45600
 13
       20.65380
 23
       18.70835
 33
       40.45600
999
CORE_MID1:CORE_MID1_CEILING
  0
3DFACE
  8
CORE_MID1
 62
 15
 10
       20.65380
 20
       18.70835
 30
       43.25600
 11
       20.65380
 21
        4.57320
 31
       43.25600
 12
       32.84340
 22
        4.57320
 32
       43.25600
 13
       32.84340
 23
       18.70835
 33
       43.25600
999
CORE_MID2:CORE_MID2_WALL_S
  0
3DFACE
  8
CORE_MID2
 62
 43
 10
        8.46421
 20
        4.57320
 30
       43.25600
 11
        8.46421
 21
        4.57320
 31
       40.45600
 12
       20.65380
 22
        4.57320
 32
       40.45600
 13
       20.65380
 23
        4.57320
 33
       43.25600
999
CORE_MID2:CORE_MID2_WALL_N
  0
3DFACE
  8
CORE_MID2
 62
 43
 10
       20.65380
 20
       18.70835
 30
       43.25600
 11
       20.65380
 21
       18.70835
 31
       40.45600
 12
        8.46421
 22
       18.70835
 32
       40.45600
 13
        8.46421
 23
       18.70835
 33
       43.25600
999
CORE_MID2:CORE_MID2_WALL_E
  0
3DFACE
  8
CORE_MID2
 62
 43
 10
       20.65380
 20
        4.57320
 30
       43.25600
 11
       20.65380
 21
        4.57320
 31
       40.45600
 12
       20.65380
 22
       18.70835
 32
       40.45600
 13
       20.65380
 23
       18.70835
 33
       43.25600
999
CORE_MID2:iz-MID_STAIRS_E
  0
3DFACE
  8
CORE_MID2
 62
 43
 10
        8.46421
 20
       19.99336
 30
       43.25600
 11
        8.46421
 21
       19.99336
 31
       40.45600
 12
        8.46421
 22
        4.57320
 32
       40.45600
 13
        8.46421
 23
        4.57320
 33
       43.25600
999
CORE_MID2:CORE_MID2_FLOOR
  0
3DFACE
  8
CORE_MID2
 62
  8
 10
       20.65380
 20
       18.70835
 30
       40.45600
 11
       20.65380
 21
        4.57320
 31
       40.45600
 12
        8.46421
 22
        4.57320
 32
       40.45600
 13
        8.46421
 23
       18.70835
 33
       40.45600
999
CORE_MID2:CORE_MID2_CEILING
  0
3DFACE
  8
CORE_MID2
 62
 15
 10
        8.46421
 20
       18.70835
 30
       43.25600
 11
        8.46421
 21
        4.57320
 31
       43.25600
 12
       20.65380
 22
        4.57320
 32
       43.25600
 13
       20.65380
 23
       18.70835
 33
       43.25600
999
CORE_MID3:CORE_MID3_WALL_S
  0
3DFACE
  8
CORE_MID3
 62
 43
 10
        8.46421
 20
       18.70835
 30
       43.25600
 11
        8.46421
 21
       18.70835
 31
       40.45600
 12
       20.65380
 22
       18.70835
 32
       40.45600
 13
       20.65380
 23
       18.70835
 33
       43.25600
999
CORE_MID3:CORE_MID3_WALL_N
  0
3DFACE
  8
CORE_MID3
 62
 43
 10
       20.65380
 20
       32.84350
 30
       43.25600
 11
       20.65380
 21
       32.84350
 31
       40.45600
 12
        8.46421
 22
       32.84350
 32
       40.45600
 13
        8.46421
 23
       32.84350
 33
       43.25600
999
CORE_MID3:CORE_MID3_WALL_E
  0
3DFACE
  8
CORE_MID3
 62
 43
 10
       20.65380
 20
       18.70835
 30
       43.25600
 11
       20.65380
 21
       18.70835
 31
       40.45600
 12
       20.65380
 22
       32.84350
 32
       40.45600
 13
       20.65380
 23
       32.84350
 33
       43.25600
999
CORE_MID3:iz-MID_TOILET_E
  0
3DFACE
  8
CORE_MID3
 62
 43
 10
        8.46421
 20
       32.84350
 30
       43.25600
 11
        8.46421
 21
       32.84350
 31
       40.45600
 12
        8.46421
 22
       19.99336
 32
       40.45600
 13
        8.46421
 23
       19.99336
 33
       43.25600
999
CORE_MID3:CORE_MID3_FLOOR
  0
3DFACE
  8
CORE_MID3
 62
  8
 10
       20.65380
 20
       32.84350
 30
       40.45600
 11
       20.65380
 21
       18.70835
 31
       40.45600
 12
        8.46421
 22
       18.70835
 32
       40.45600
 13
        8.46421
 23
       32.84350
 33
       40.45600
999
CORE_MID3:CORE_MID3_CEILING
  0
3DFACE
  8
CORE_MID3
 62
 15
 10
        8.46421
 20
       32.84350
 30
       43.25600
 11
        8.46421
 21
       18.70835
 31
       43.25600
 12
       20.65380
 22
       18.70835
 32
       43.25600
 13
       20.65380
 23
       32.84350
 33
       43.25600
999
CORE_MID4:CORE_MID4_WALL_S
  0
3DFACE
  8
CORE_MID4
 62
 43
 10
       20.65380
 20
       18.70835
 30
       43.25600
 11
       20.65380
 21
       18.70835
 31
       40.45600
 12
       32.84340
 22
       18.70835
 32
       40.45600
 13
       32.84340
 23
       18.70835
 33
       43.25600
999
CORE_MID4:CORE_MID4_WALL_N
  0
3DFACE
  8
CORE_MID4
 62
 43
 10
       32.84340
 20
       32.84350
 30
       43.25600
 11
       32.84340
 21
       32.84350
 31
       40.45600
 12
       20.65380
 22
       32.84350
 32
       40.45600
 13
       20.65380
 23
       32.84350
 33
       43.25600
999
CORE_MID4:CORE_MID4_WALL_E
  0
3DFACE
  8
CORE_MID4
 62
 43
 10
       32.84340
 20
       18.70835
 30
       43.25600
 11
       32.84340
 21
       18.70835
 31
       40.45600
 12
       32.84340
 22
       32.84350
 32
       40.45600
 13
       32.84340
 23
       32.84350
 33
       43.25600
999
CORE_MID4:CORE_MID4_WALL_W
  0
3DFACE
  8
CORE_MID4
 62
 43
 10
       20.65380
 20
       32.84350
 30
       43.25600
 11
       20.65380
 21
       32.84350
 31
       40.45600
 12
       20.65380
 22
       18.70835
 32
       40.45600
 13
       20.65380
 23
       18.70835
 33
       43.25600
999
CORE_MID4:CORE_MID4_FLOOR
  0
3DFACE
  8
CORE_MID4
 62
  8
 10
       32.84340
 20
       32.84350
 30
       40.45600
 11
       32.84340
 21
       18.70835
 31
       40.45600
 12
       20.65380
 22
       18.70835
 32
       40.45600
 13
       20.65380
 23
       32.84350
 33
       40.45600
999
CORE_MID4:CORE_MID4_CEILING
  0
3DFACE
  8
CORE_MID4
 62
 15
 10
       20.65380
 20
       32.84350
 30
       43.25600
 11
       20.65380
 21
       18.70835
 31
       43.25600
 12
       32.84340
 22
       18.70835
 32
       43.25600
 13
       32.84340
 23
       32.84350
 33
       43.25600
999
CORE_TOP:CORE_TOP_WALL_S
  0
3DFACE
  8
CORE_TOP
 62
 43
 10
        8.46421
 20
        4.57320
 30
       77.20000
 11
        8.46421
 21
        4.57320
 31
       74.40000
 12
       32.84340
 22
        4.57320
 32
       74.40000
 13
       32.84340
 23
        4.57320
 33
       77.20000
999
CORE_TOP:CORE_TOP_WALL_N
  0
3DFACE
  8
CORE_TOP
 62
 43
 10
       32.84340
 20
       32.84350
 30
       77.20000
 11
       32.84340
 21
       32.84350
 31
       74.40000
 12
        8.46421
 22
       32.84350
 32
       74.40000
 13
        8.46421
 23
       32.84350
 33
       77.20000
999
CORE_TOP:CORE_TOP_WALL_E
  0
3DFACE
  8
CORE_TOP
 62
 43
 10
       32.84340
 20
        4.57320
 30
       77.20000
 11
       32.84340
 21
        4.57320
 31
       74.40000
 12
       32.84340
 22
       32.84350
 32
       74.40000
 13
       32.84340
 23
       32.84350
 33
       77.20000
999
CORE_TOP:iz-TOP_TOILET_E
  0
3DFACE
  8
CORE_TOP
 62
 43
 10
        8.46421
 20
       32.84350
 30
       77.20000
 11
        8.46421
 21
       32.84350
 31
       74.40000
 12
        8.46421
 22
       19.99336
 32
       74.40000
 13
        8.46421
 23
       19.99336
 33
       77.20000
999
CORE_TOP:iz-TOP_STAIRS_E
  0
3DFACE
  8
CORE_TOP
 62
 43
 10
        8.46421
 20
       19.99336
 30
       77.20000
 11
        8.46421
 21
       19.99336
 31
       74.40000
 12
        8.46421
 22
        4.57320
 32
       74.40000
 13
        8.46421
 23
        4.57320
 33
       77.20000
999
CORE_TOP:CORE_TOP_FLOOR
  0
3DFACE
  8
CORE_TOP
 62
  8
 10
       32.84340
 20
       32.84350
 30
       74.40000
 11
       32.84340
 21
        4.57320
 31
       74.40000
 12
        8.46421
 22
        4.57320
 32
       74.40000
 13
        8.46421
 23
       32.84350
 33
       74.40000
999
CORE_TOP:CORE_TOP_CEILING
  0
3DFACE
  8
CORE_TOP
 62
 15
 10
        8.46421
 20
       32.84350
 30
       77.20000
 11
        8.46421
 21
        4.57320
 31
       77.20000
 12
       32.84340
 22
        4.57320
 32
       77.20000
 13
       32.84340
 23
       32.84350
 33
       77.20000
999
ZONE_BOT_N:ZONE_BOT_N_WALL_N
  0
3DFACE
  8
ZONE_BOT_N
 62
 43
 10
       37.41660
 20
       37.41660
 30
       14.80000
 11
       37.41660
 21
       37.41660
 31
       12.00000
 12
        0.00000
 22
       37.41660
 32
       12.00000
 13
        0.00000
 23
       37.41660
 33
       14.80000
999
ZONE_BOT_N:ZONE_BOT_N_WALL_N_WINDOW
  0
3DFACE
  8
ZONE_BOT_N
 62
143
 10
       37.41640
 20
       37.41660
 30
       14.50101
 11
       37.41640
 21
       37.41660
 31
       12.20000
 12
        0.00000
 22
       37.41660
 32
       12.20000
 13
        0.00000
 23
       37.41660
 33
       14.50101
999
ZONE_BOT_N:ZONE_BOT_N_WALL_W
  0
3DFACE
  8
ZONE_BOT_N
 62
 43
 10
        0.00000
 20
       37.41660
 30
       14.80000
 11
        0.00000
 21
       37.41660
 31
       12.00000
 12
        4.57320
 22
       32.84350
 32
       12.00000
 13
        4.57320
 23
       32.84350
 33
       14.80000
999
ZONE_BOT_N:CORE_BOT_WALL_N-AUTOCREATED
  0
3DFACE
  8
ZONE_BOT_N
 62
 43
 10
        8.46421
 20
       32.84350
 30
       14.80000
 11
        8.46421
 21
       32.84350
 31
       12.00000
 12
       32.84340
 22
       32.84350
 32
       12.00000
 13
       32.84340
 23
       32.84350
 33
       14.80000
999
ZONE_BOT_N:ZONE_BOT_E_WALL_N-AUTOCREATED
  0
3DFACE
  8
ZONE_BOT_N
 62
 43
 10
       32.84340
 20
       32.84350
 30
       14.80000
 11
       32.84340
 21
       32.84350
 31
       12.00000
 12
       37.41660
 22
       37.41660
 32
       12.00000
 13
       37.41660
 23
       37.41660
 33
       14.80000
999
ZONE_BOT_N:iz-BOT_TOILET_N
  0
3DFACE
  8
ZONE_BOT_N
 62
 43
 10
        4.57320
 20
       32.84350
 30
       14.80000
 11
        4.57320
 21
       32.84350
 31
       12.00000
 12
        8.46421
 22
       32.84350
 32
       12.00000
 13
        8.46421
 23
       32.84350
 33
       14.80000
999
ZONE_BOT_N:ZONE_BOT_N_FLOOR
  0
3DFACE
  8
ZONE_BOT_N
 62
  8
 10
       37.41660
 20
       37.41660
 30
       12.00000
 11
       32.84340
 21
       32.84350
 31
       12.00000
 12
       16.07820
 22
       32.84350
 32
       12.00000
 13
       16.07820
 23
       37.41660
 33
       12.00000
999
ZONE_BOT_N:CEILING-ZONE_BOT_N-AUTOCREATED
  0
3DFACE
  8
ZONE_BOT_N
 62
  8
 10
       16.07820
 20
       37.41660
 30
       12.00000
 11
       16.07820
 21
       32.84350
 31
       12.00000
 12
        4.57320
 22
       32.84350
 32
       12.00000
 13
        0.00000
 23
       37.41660
 33
       12.00000
999
ZONE_BOT_N:ZONE_BOT_N_CEILING
  0
3DFACE
  8
ZONE_BOT_N
 62
 15
 10
        0.00000
 20
       37.41660
 30
       14.80000
 11
        4.57320
 21
       32.84350
 31
       14.80000
 12
       32.84340
 22
       32.84350
 32
       14.80000
 13
       37.41660
 23
       37.41660
 33
       14.80000
999
ZONE_BOT_N:ZONE_BOT_N_WALL_N_SHADE
  0
3DFACE
  8
ZONE_BOT_N
 62
 13
 10
       37.41640
 20
       38.01660
 30
       14.50101
 11
       37.41640
 21
       37.41660
 31
       14.50101
 12
        0.00000
 22
       37.41660
 32
       14.50101
 13
        0.00000
 23
       38.01660
 33
       14.50101
999
ZONE_BOT_N:Mir-ZONE_BOT_N_WALL_N_SHADE
  0
3DFACE
  8
ZONE_BOT_N
 62
 13
 10
        0.00000
 20
       38.01660
 30
       14.50101
 11
        0.00000
 21
       37.41660
 31
       14.50101
 12
       37.41640
 22
       37.41660
 32
       14.50101
 13
       37.41640
 23
       38.01660
 33
       14.50101
999
ZONE_BOT_E:ZONE_BOT_E_WALL_E
  0
3DFACE
  8
ZONE_BOT_E
 62
 43
 10
       37.41660
 20
        0.00000
 30
       14.80000
 11
       37.41660
 21
        0.00000
 31
       12.00000
 12
       37.41660
 22
       37.41660
 32
       12.00000
 13
       37.41660
 23
       37.41660
 33
       14.80000
999
ZONE_BOT_E:ZONE_BOT_E_WALL_E_WINDOW
  0
3DFACE
  8
ZONE_BOT_E
 62
143
 10
       37.41660
 20
        0.00000
 30
       14.50101
 11
       37.41660
 21
        0.00000
 31
       12.20000
 12
       37.41660
 22
       37.41650
 32
       12.20000
 13
       37.41660
 23
       37.41650
 33
       14.50101
999
ZONE_BOT_E:ZONE_BOT_E_WALL_N
  0
3DFACE
  8
ZONE_BOT_E
 62
 43
 10
       37.41660
 20
       37.41660
 30
       14.80000
 11
       37.41660
 21
       37.41660
 31
       12.00000
 12
       32.84340
 22
       32.84350
 32
       12.00000
 13
       32.84340
 23
       32.84350
 33
       14.80000
999
ZONE_BOT_E:CORE_BOT_WALL_E-AUTOCREATED
  0
3DFACE
  8
ZONE_BOT_E
 62
 43
 10
       32.84340
 20
       32.84350
 30
       14.80000
 11
       32.84340
 21
       32.84350
 31
       12.00000
 12
       32.84340
 22
        4.57320
 32
       12.00000
 13
       32.84340
 23
        4.57320
 33
       14.80000
999
ZONE_BOT_E:ZONE_BOT_S_WALL_E-AUTOCREATED
  0
3DFACE
  8
ZONE_BOT_E
 62
 43
 10
       32.84340
 20
        4.57320
 30
       14.80000
 11
       32.84340
 21
        4.57320
 31
       12.00000
 12
       37.41660
 22
        0.00000
 32
       12.00000
 13
       37.41660
 23
        0.00000
 33
       14.80000
999
ZONE_BOT_E:ZONE_BOT_E_FLOOR
  0
3DFACE
  8
ZONE_BOT_E
 62
  8
 10
       37.41660
 20
       37.41660
 30
       12.00000
 11
       37.41660
 21
        0.00000
 31
       12.00000
 12
       32.84340
 22
        4.57320
 32
       12.00000
 13
       32.84340
 23
       32.84350
 33
       12.00000
999
ZONE_BOT_E:ZONE_BOT_E_CEILING
  0
3DFACE
  8
ZONE_BOT_E
 62
 15
 10
       32.84340
 20
       32.84350
 30
       14.80000
 11
       32.84340
 21
        4.57320
 31
       14.80000
 12
       37.41660
 22
        0.00000
 32
       14.80000
 13
       37.41660
 23
       37.41660
 33
       14.80000
999
ZONE_BOT_E:ZONE_BOT_E_WALL_E_SHADE
  0
3DFACE
  8
ZONE_BOT_E
 62
 13
 10
       38.01660
 20
        0.00000
 30
       14.50101
 11
       37.41660
 21
       -0.00000
 31
       14.50101
 12
       37.41660
 22
       37.41650
 32
       14.50101
 13
       38.01660
 23
       37.41650
 33
       14.50101
999
ZONE_BOT_E:Mir-ZONE_BOT_E_WALL_E_SHADE
  0
3DFACE
  8
ZONE_BOT_E
 62
 13
 10
       38.01660
 20
       37.41650
 30
       14.50101
 11
       37.41660
 21
       37.41650
 31
       14.50101
 12
       37.41660
 22
       -0.00000
 32
       14.50101
 13
       38.01660
 23
        0.00000
 33
       14.50101
999
ZONE_BOT_S:ZONE_BOT_S_WALL_S
  0
3DFACE
  8
ZONE_BOT_S
 62
 43
 10
        0.00000
 20
        0.00000
 30
       14.80000
 11
        0.00000
 21
        0.00000
 31
       12.00000
 12
       37.41660
 22
        0.00000
 32
       12.00000
 13
       37.41660
 23
        0.00000
 33
       14.80000
999
ZONE_BOT_S:ZONE_BOT_S_WALL_S_WINDOW
  0
3DFACE
  8
ZONE_BOT_S
 62
143
 10
        0.00000
 20
        0.00000
 30
       14.50101
 11
        0.00000
 21
        0.00000
 31
       12.20000
 12
       37.41640
 22
        0.00000
 32
       12.20000
 13
       37.41640
 23
        0.00000
 33
       14.50101
999
ZONE_BOT_S:ZONE_BOT_S_WALL_E
  0
3DFACE
  8
ZONE_BOT_S
 62
 43
 10
       37.41660
 20
        0.00000
 30
       14.80000
 11
       37.41660
 21
        0.00000
 31
       12.00000
 12
       32.84340
 22
        4.57320
 32
       12.00000
 13
       32.84340
 23
        4.57320
 33
       14.80000
999
ZONE_BOT_S:ZONE_BOT_W_WALL_S-AUTOCREATED
  0
3DFACE
  8
ZONE_BOT_S
 62
 43
 10
        4.57320
 20
        4.57320
 30
       14.80000
 11
        4.57320
 21
        4.57320
 31
       12.00000
 12
        0.00000
 22
        0.00000
 32
       12.00000
 13
        0.00000
 23
        0.00000
 33
       14.80000
999
ZONE_BOT_S:CORE_BOT_WALL_S-AUTOCREATED
  0
3DFACE
  8
ZONE_BOT_S
 62
 43
 10
       32.84340
 20
        4.57320
 30
       14.80000
 11
       32.84340
 21
        4.57320
 31
       12.00000
 12
        8.46421
 22
        4.57320
 32
       12.00000
 13
        8.46421
 23
        4.57320
 33
       14.80000
999
ZONE_BOT_S:iz-BOT_STAIRS_S
  0
3DFACE
  8
ZONE_BOT_S
 62
 43
 10
        8.46421
 20
        4.57320
 30
       14.80000
 11
        8.46421
 21
        4.57320
 31
       12.00000
 12
        4.57320
 22
        4.57320
 32
       12.00000
 13
        4.57320
 23
        4.57320
 33
       14.80000
999
ZONE_BOT_S:ZONE_BOT_S-AUTOCREATED
  0
3DFACE
  8
ZONE_BOT_S
 62
  8
 10
       16.07820
 20
        4.57320
 30
       12.00000
 11
       16.07820
 21
        0.00000
 31
       12.00000
 12
        0.00000
 22
        0.00000
 32
       12.00000
 13
        4.57320
 23
        4.57320
 33
       12.00000
999
ZONE_BOT_S:ZONE_BOT_S_FLOOR
  0
3DFACE
  8
ZONE_BOT_S
 62
  8
 10
       32.84340
 20
        4.57320
 30
       12.00000
 11
       37.41660
 21
        0.00000
 31
       12.00000
 12
       16.07820
 22
        0.00000
 32
       12.00000
 13
       16.07820
 23
        4.57320
 33
       12.00000
999
ZONE_BOT_S:ZONE_BOT_S_CEILING
  0
3DFACE
  8
ZONE_BOT_S
 62
 15
 10
        4.57320
 20
        4.57320
 30
       14.80000
 11
        0.00000
 21
        0.00000
 31
       14.80000
 12
       37.41660
 22
        0.00000
 32
       14.80000
 13
       32.84340
 23
        4.57320
 33
       14.80000
999
ZONE_BOT_S:ZONE_BOT_S_WALL_S_SHADE
  0
3DFACE
  8
ZONE_BOT_S
 62
 13
 10
        0.00000
 20
       -0.60000
 30
       14.50101
 11
       -0.00000
 21
        0.00000
 31
       14.50101
 12
       37.41640
 22
        0.00000
 32
       14.50101
 13
       37.41640
 23
       -0.60000
 33
       14.50101
999
ZONE_BOT_S:Mir-ZONE_BOT_S_WALL_S_SHADE
  0
3DFACE
  8
ZONE_BOT_S
 62
 13
 10
       37.41640
 20
       -0.60000
 30
       14.50101
 11
       37.41640
 21
        0.00000
 31
       14.50101
 12
       -0.00000
 22
        0.00000
 32
       14.50101
 13
        0.00000
 23
       -0.60000
 33
       14.50101
999
ZONE_BOT_W:ZONE_BOT_W_WALL_W
  0
3DFACE
  8
ZONE_BOT_W
 62
 43
 10
        0.00000
 20
       37.41660
 30
       14.80000
 11
        0.00000
 21
       37.41660
 31
       12.00000
 12
        0.00000
 22
        0.00000
 32
       12.00000
 13
        0.00000
 23
        0.00000
 33
       14.80000
999
ZONE_BOT_W:ZONE_BOT_W_WALL_W_WINDOW
  0
3DFACE
  8
ZONE_BOT_W
 62
143
 10
        0.00000
 20
       37.41650
 30
       14.50101
 11
        0.00000
 21
       37.41650
 31
       12.20000
 12
        0.00000
 22
        0.00000
 32
       12.20000
 13
        0.00000
 23
        0.00000
 33
       14.50101
999
ZONE_BOT_W:ZONE_BOT_W_WALL_S
  0
3DFACE
  8
ZONE_BOT_W
 62
 43
 10
        0.00000
 20
        0.00000
 30
       14.80000
 11
        0.00000
 21
        0.00000
 31
       12.00000
 12
        4.57320
 22
        4.57320
 32
       12.00000
 13
        4.57320
 23
        4.57320
 33
       14.80000
999
ZONE_BOT_W:ZONE_BOT_N_WALL_W-AUTOCREATED
  0
3DFACE
  8
ZONE_BOT_W
 62
 43
 10
        4.57320
 20
       32.84350
 30
       14.80000
 11
        4.57320
 21
       32.84350
 31
       12.00000
 12
        0.00000
 22
       37.41660
 32
       12.00000
 13
        0.00000
 23
       37.41660
 33
       14.80000
999
ZONE_BOT_W:iz-BOT_TOILET_W
  0
3DFACE
  8
ZONE_BOT_W
 62
 43
 10
        4.57320
 20
       19.99336
 30
       14.80000
 11
        4.57320
 21
       19.99336
 31
       12.00000
 12
        4.57320
 22
       32.84350
 32
       12.00000
 13
        4.57320
 23
       32.84350
 33
       14.80000
999
ZONE_BOT_W:iz-BOT_STAIRS_W
  0
3DFACE
  8
ZONE_BOT_W
 62
 43
 10
        4.57320
 20
        4.57320
 30
       14.80000
 11
        4.57320
 21
        4.57320
 31
       12.00000
 12
        4.57320
 22
       19.99336
 32
       12.00000
 13
        4.57320
 23
       19.99336
 33
       14.80000
999
ZONE_BOT_W:ZONE_BOT_W_FLOOR
  0
3DFACE
  8
ZONE_BOT_W
 62
  8
 10
        4.57320
 20
       32.84350
 30
       12.00000
 11
        4.57320
 21
        4.57320
 31
       12.00000
 12
        0.00000
 22
        0.00000
 32
       12.00000
 13
        0.00000
 23
       37.41660
 33
       12.00000
999
ZONE_BOT_W:ZONE_BOT_W_CEILING
  0
3DFACE
  8
ZONE_BOT_W
 62
 15
 10
        0.00000
 20
       37.41660
 30
       14.80000
 11
        0.00000
 21
        0.00000
 31
       14.80000
 12
        4.57320
 22
        4.57320
 32
       14.80000
 13
        4.57320
 23
       32.84350
 33
       14.80000
999
ZONE_BOT_W:ZONE_BOT_W_WALL_W_SHADE
  0
3DFACE
  8
ZONE_BOT_W
 62
 13
 10
       -0.60000
 20
       37.41650
 30
       14.50101
 11
        0.00000
 21
       37.41650
 31
       14.50101
 12
        0.00000
 22
        0.00000
 32
       14.50101
 13
       -0.60000
 23
       -0.00000
 33
       14.50101
999
ZONE_BOT_W:Mir-ZONE_BOT_W_WALL_W_SHADE
  0
3DFACE
  8
ZONE_BOT_W
 62
 13
 10
       -0.60000
 20
       -0.00000
 30
       14.50101
 11
        0.00000
 21
        0.00000
 31
       14.50101
 12
        0.00000
 22
       37.41650
 32
       14.50101
 13
       -0.60000
 23
       37.41650
 33
       14.50101
999
ZONE_MID_N:ZONE_MID_N_WALL_N
  0
3DFACE
  8
ZONE_MID_N
 62
 43
 10
       37.41660
 20
       37.41660
 30
       43.25600
 11
       37.41660
 21
       37.41660
 31
       40.45600
 12
        0.00000
 22
       37.41660
 32
       40.45600
 13
        0.00000
 23
       37.41660
 33
       43.25600
999
ZONE_MID_N:ZONE_MID_N_WALL_N_WINDOW
  0
3DFACE
  8
ZONE_MID_N
 62
143
 10
       37.41640
 20
       37.41660
 30
       42.95701
 11
       37.41640
 21
       37.41660
 31
       40.65600
 12
        0.00000
 22
       37.41660
 32
       40.65600
 13
        0.00000
 23
       37.41660
 33
       42.95701
999
ZONE_MID_N:ZONE_MID_N_WALL_W
  0
3DFACE
  8
ZONE_MID_N
 62
 43
 10
        0.00000
 20
       37.41660
 30
       43.25600
 11
        0.00000
 21
       37.41660
 31
       40.45600
 12
        4.57320
 22
       32.84350
 32
       40.45600
 13
        4.57320
 23
       32.84350
 33
       43.25600
999
ZONE_MID_N:CORE_MID3_WALL_N-AUTOCREATED
  0
3DFACE
  8
ZONE_MID_N
 62
 43
 10
        8.46421
 20
       32.84350
 30
       43.25600
 11
        8.46421
 21
       32.84350
 31
       40.45600
 12
       20.65380
 22
       32.84350
 32
       40.45600
 13
       20.65380
 23
       32.84350
 33
       43.25600
999
ZONE_MID_N:CORE_MID4_WALL_N-AUTOCREATED
  0
3DFACE
  8
ZONE_MID_N
 62
 43
 10
       20.65380
 20
       32.84350
 30
       43.25600
 11
       20.65380
 21
       32.84350
 31
       40.45600
 12
       32.84340
 22
       32.84350
 32
       40.45600
 13
       32.84340
 23
       32.84350
 33
       43.25600
999
ZONE_MID_N:ZONE_MID_E_WALL_N-AUTOCREATED
  0
3DFACE
  8
ZONE_MID_N
 62
 43
 10
       32.84340
 20
       32.84350
 30
       43.25600
 11
       32.84340
 21
       32.84350
 31
       40.45600
 12
       37.41660
 22
       37.41660
 32
       40.45600
 13
       37.41660
 23
       37.41660
 33
       43.25600
999
ZONE_MID_N:iz-MID_TOILET_N
  0
3DFACE
  8
ZONE_MID_N
 62
 43
 10
        4.57320
 20
       32.84350
 30
       43.25600
 11
        4.57320
 21
       32.84350
 31
       40.45600
 12
        8.46421
 22
       32.84350
 32
       40.45600
 13
        8.46421
 23
       32.84350
 33
       43.25600
999
ZONE_MID_N:ZONE_MID_N_FLOOR
  0
3DFACE
  8
ZONE_MID_N
 62
  8
 10
       37.41660
 20
       37.41660
 30
       40.45600
 11
       32.84340
 21
       32.84350
 31
       40.45600
 12
        4.57320
 22
       32.84350
 32
       40.45600
 13
        0.00000
 23
       37.41660
 33
       40.45600
999
ZONE_MID_N:ZONE_MID_N_CEILING
  0
3DFACE
  8
ZONE_MID_N
 62
 15
 10
        0.00000
 20
       37.41660
 30
       43.25600
 11
        4.57320
 21
       32.84350
 31
       43.25600
 12
       32.84340
 22
       32.84350
 32
       43.25600
 13
       37.41660
 23
       37.41660
 33
       43.25600
999
ZONE_MID_N:ZONE_MID_N_WALL_N_SHADE
  0
3DFACE
  8
ZONE_MID_N
 62
 13
 10
       37.41640
 20
       38.01660
 30
       42.95701
 11
       37.41640
 21
       37.41660
 31
       42.95701
 12
        0.00000
 22
       37.41660
 32
       42.95701
 13
        0.00000
 23
       38.01660
 33
       42.95701
999
ZONE_MID_N:Mir-ZONE_MID_N_WALL_N_SHADE
  0
3DFACE
  8
ZONE_MID_N
 62
 13
 10
        0.00000
 20
       38.01660
 30
       42.95701
 11
        0.00000
 21
       37.41660
 31
       42.95701
 12
       37.41640
 22
       37.41660
 32
       42.95701
 13
       37.41640
 23
       38.01660
 33
       42.95701
999
ZONE_MID_E:ZONE_MID_E_WALL_E
  0
3DFACE
  8
ZONE_MID_E
 62
 43
 10
       37.41660
 20
        0.00000
 30
       43.25600
 11
       37.41660
 21
        0.00000
 31
       40.45600
 12
       37.41660
 22
       37.41660
 32
       40.45600
 13
       37.41660
 23
       37.41660
 33
       43.25600
999
ZONE_MID_E:ZONE_MID_E_WALL_E_WINDOW
  0
3DFACE
  8
ZONE_MID_E
 62
143
 10
       37.41660
 20
        0.00000
 30
       42.95701
 11
       37.41660
 21
        0.00000
 31
       40.65600
 12
       37.41660
 22
       37.41650
 32
       40.65600
 13
       37.41660
 23
       37.41650
 33
       42.95701
999
ZONE_MID_E:ZONE_MID_E_WALL_N
  0
3DFACE
  8
ZONE_MID_E
 62
 43
 10
       37.41660
 20
       37.41660
 30
       43.25600
 11
       37.41660
 21
       37.41660
 31
       40.45600
 12
       32.84340
 22
       32.84350
 32
       40.45600
 13
       32.84340
 23
       32.84350
 33
       43.25600
999
ZONE_MID_E:CORE_MID1_WALL_E-AUTOCREATED
  0
3DFACE
  8
ZONE_MID_E
 62
 43
 10
       32.84340
 20
       18.70835
 30
       43.25600
 11
       32.84340
 21
       18.70835
 31
       40.45600
 12
       32.84340
 22
        4.57320
 32
       40.45600
 13
       32.84340
 23
        4.57320
 33
       43.25600
999
ZONE_MID_E:CORE_MID4_WALL_E-AUTOCREATED
  0
3DFACE
  8
ZONE_MID_E
 62
 43
 10
       32.84340
 20
       32.84350
 30
       43.25600
 11
       32.84340
 21
       32.84350
 31
       40.45600
 12
       32.84340
 22
       18.70835
 32
       40.45600
 13
       32.84340
 23
       18.70835
 33
       43.25600
999
ZONE_MID_E:ZONE_MID_S_WALL_E-AUTOCREATED
  0
3DFACE
  8
ZONE_MID_E
 62
 43
 10
       32.84340
 20
        4.57320
 30
       43.25600
 11
       32.84340
 21
        4.57320
 31
       40.45600
 12
       37.41660
 22
        0.00000
 32
       40.45600
 13
       37.41660
 23
        0.00000
 33
       43.25600
999
ZONE_MID_E:ZONE_MID_E_FLOOR
  0
3DFACE
  8
ZONE_MID_E
 62
  8
 10
       37.41660
 20
       37.41660
 30
       40.45600
 11
       37.41660
 21
        0.00000
 31
       40.45600
 12
       32.84340
 22
        4.57320
 32
       40.45600
 13
       32.84340
 23
       32.84350
 33
       40.45600
999
ZONE_MID_E:ZONE_MID_E_CEILING
  0
3DFACE
  8
ZONE_MID_E
 62
 15
 10
       32.84340
 20
       32.84350
 30
       43.25600
 11
       32.84340
 21
        4.57320
 31
       43.25600
 12
       37.41660
 22
        0.00000
 32
       43.25600
 13
       37.41660
 23
       37.41660
 33
       43.25600
999
ZONE_MID_E:ZONE_MID_E_WALL_E_SHADE
  0
3DFACE
  8
ZONE_MID_E
 62
 13
 10
       38.01660
 20
        0.00000
 30
       42.95701
 11
       37.41660
 21
       -0.00000
 31
       42.95701
 12
       37.41660
 22
       37.41650
 32
       42.95701
 13
       38.01660
 23
       37.41650
 33
       42.95701
999
ZONE_MID_E:Mir-ZONE_MID_E_WALL_E_SHADE
  0
3DFACE
  8
ZONE_MID_E
 62
 13
 10
       38.01660
 20
       37.41650
 30
       42.95701
 11
       37.41660
 21
       37.41650
 31
       42.95701
 12
       37.41660
 22
       -0.00000
 32
       42.95701
 13
       38.01660
 23
        0.00000
 33
       42.95701
999
ZONE_MID_S:ZONE_MID_S_WALL_E
  0
3DFACE
  8
ZONE_MID_S
 62
 43
 10
       37.41660
 20
        0.00000
 30
       43.25600
 11
       37.41660
 21
        0.00000
 31
       40.45600
 12
       32.84340
 22
        4.57320
 32
       40.45600
 13
       32.84340
 23
        4.57320
 33
       43.25600
999
ZONE_MID_S:ZONE_MID_S_WALL_S
  0
3DFACE
  8
ZONE_MID_S
 62
 43
 10
        0.00000
 20
        0.00000
 30
       43.25600
 11
        0.00000
 21
        0.00000
 31
       40.45600
 12
       37.41660
 22
        0.00000
 32
       40.45600
 13
       37.41660
 23
        0.00000
 33
       43.25600
999
ZONE_MID_S:ZONE_MID_S_WALL_S_WINDOW
  0
3DFACE
  8
ZONE_MID_S
 62
143
 10
        0.00000
 20
        0.00000
 30
       42.95701
 11
        0.00000
 21
        0.00000
 31
       40.65600
 12
       37.41640
 22
        0.00000
 32
       40.65600
 13
       37.41640
 23
        0.00000
 33
       42.95701
999
ZONE_MID_S:ZONE_MID_W_WALL_S-AUTOCREATED
  0
3DFACE
  8
ZONE_MID_S
 62
 43
 10
        4.57320
 20
        4.57320
 30
       43.25600
 11
        4.57320
 21
        4.57320
 31
       40.45600
 12
        0.00000
 22
        0.00000
 32
       40.45600
 13
        0.00000
 23
        0.00000
 33
       43.25600
999
ZONE_MID_S:CORE_MID1_WALL_S-AUTOCREATED
  0
3DFACE
  8
ZONE_MID_S
 62
 43
 10
       32.84340
 20
        4.57320
 30
       43.25600
 11
       32.84340
 21
        4.57320
 31
       40.45600
 12
       20.65380
 22
        4.57320
 32
       40.45600
 13
       20.65380
 23
        4.57320
 33
       43.25600
999
ZONE_MID_S:CORE_MID2_WALL_S-AUTOCREATED
  0
3DFACE
  8
ZONE_MID_S
 62
 43
 10
       20.65380
 20
        4.57320
 30
       43.25600
 11
       20.65380
 21
        4.57320
 31
       40.45600
 12
        8.46421
 22
        4.57320
 32
       40.45600
 13
        8.46421
 23
        4.57320
 33
       43.25600
999
ZONE_MID_S:iz-MID_STAIRS_S
  0
3DFACE
  8
ZONE_MID_S
 62
 43
 10
        8.46421
 20
        4.57320
 30
       43.25600
 11
        8.46421
 21
        4.57320
 31
       40.45600
 12
        4.57320
 22
        4.57320
 32
       40.45600
 13
        4.57320
 23
        4.57320
 33
       43.25600
999
ZONE_MID_S:ZONE_MID_S_FLOOR
  0
3DFACE
  8
ZONE_MID_S
 62
  8
 10
       32.84340
 20
        4.57320
 30
       40.45600
 11
       37.41660
 21
        0.00000
 31
       40.45600
 12
        0.00000
 22
        0.00000
 32
       40.45600
 13
        4.57320
 23
        4.57320
 33
       40.45600
999
ZONE_MID_S:ZONE_MID_S_CEILING
  0
3DFACE
  8
ZONE_MID_S
 62
 15
 10
        4.57320
 20
        4.57320
 30
       43.25600
 11
        0.00000
 21
        0.00000
 31
       43.25600
 12
       37.41660
 22
        0.00000
 32
       43.25600
 13
       32.84340
 23
        4.57320
 33
       43.25600
999
ZONE_MID_S:ZONE_MID_S_WALL_S_SHADE
  0
3DFACE
  8
ZONE_MID_S
 62
 13
 10
        0.00000
 20
       -0.60000
 30
       42.95701
 11
       -0.00000
 21
        0.00000
 31
       42.95701
 12
       37.41640
 22
        0.00000
 32
       42.95701
 13
       37.41640
 23
       -0.60000
 33
       42.95701
999
ZONE_MID_S:Mir-ZONE_MID_S_WALL_S_SHADE
  0
3DFACE
  8
ZONE_MID_S
 62
 13
 10
       37.41640
 20
       -0.60000
 30
       42.95701
 11
       37.41640
 21
        0.00000
 31
       42.95701
 12
       -0.00000
 22
        0.00000
 32
       42.95701
 13
        0.00000
 23
       -0.60000
 33
       42.95701
999
ZONE_MID_W:ZONE_MID_W_WALL_W
  0
3DFACE
  8
ZONE_MID_W
 62
 43
 10
        0.00000
 20
       37.41660
 30
       43.25600
 11
        0.00000
 21
       37.41660
 31
       40.45600
 12
        0.00000
 22
        0.00000
 32
       40.45600
 13
        0.00000
 23
        0.00000
 33
       43.25600
999
ZONE_MID_W:ZONE_MID_W_WALL_W_WINDOW
  0
3DFACE
  8
ZONE_MID_W
 62
143
 10
        0.00000
 20
       37.41650
 30
       42.95701
 11
        0.00000
 21
       37.41650
 31
       40.65600
 12
        0.00000
 22
        0.00000
 32
       40.65600
 13
        0.00000
 23
        0.00000
 33
       42.95701
999
ZONE_MID_W:ZONE_MID_W_WALL_S
  0
3DFACE
  8
ZONE_MID_W
 62
 43
 10
        0.00000
 20
        0.00000
 30
       43.25600
 11
        0.00000
 21
        0.00000
 31
       40.45600
 12
        4.57320
 22
        4.57320
 32
       40.45600
 13
        4.57320
 23
        4.57320
 33
       43.25600
999
ZONE_MID_W:ZONE_MID_N_WALL_W-AUTOCREATED
  0
3DFACE
  8
ZONE_MID_W
 62
 43
 10
        4.57320
 20
       32.84350
 30
       43.25600
 11
        4.57320
 21
       32.84350
 31
       40.45600
 12
        0.00000
 22
       37.41660
 32
       40.45600
 13
        0.00000
 23
       37.41660
 33
       43.25600
999
ZONE_MID_W:iz-MID_TOILET_W
  0
3DFACE
  8
ZONE_MID_W
 62
 43
 10
        4.57320
 20
       19.99336
 30
       43.25600
 11
        4.57320
 21
       19.99336
 31
       40.45600
 12
        4.57320
 22
       32.84350
 32
       40.45600
 13
        4.57320
 23
       32.84350
 33
       43.25600
999
ZONE_MID_W:iz-MID_STAIRS_W
  0
3DFACE
  8
ZONE_MID_W
 62
 43
 10
        4.57320
 20
        4.57320
 30
       43.25600
 11
        4.57320
 21
        4.57320
 31
       40.45600
 12
        4.57320
 22
       19.99336
 32
       40.45600
 13
        4.57320
 23
       19.99336
 33
       43.25600
999
ZONE_MID_W:ZONE_MID_W_FLOOR
  0
3DFACE
  8
ZONE_MID_W
 62
  8
 10
        4.57320
 20
       32.84350
 30
       40.45600
 11
        4.57320
 21
        4.57320
 31
       40.45600
 12
        0.00000
 22
        0.00000
 32
       40.45600
 13
        0.00000
 23
       37.41660
 33
       40.45600
999
ZONE_MID_W:ZONE_MID_W_CEILING
  0
3DFACE
  8
ZONE_MID_W
 62
 15
 10
        0.00000
 20
       37.41660
 30
       43.25600
 11
        0.00000
 21
        0.00000
 31
       43.25600
 12
        4.57320
 22
        4.57320
 32
       43.25600
 13
        4.57320
 23
       32.84350
 33
       43.25600
999
ZONE_MID_W:ZONE_MID_W_WALL_W_SHADE
  0
3DFACE
  8
ZONE_MID_W
 62
 13
 10
       -0.60000
 20
       37.41650
 30
       42.95701
 11
        0.00000
 21
       37.41650
 31
       42.95701
 12
        0.00000
 22
        0.00000
 32
       42.95701
 13
       -0.60000
 23
       -0.00000
 33
       42.95701
999
ZONE_MID_W:Mir-ZONE_MID_W_WALL_W_SHADE
  0
3DFACE
  8
ZONE_MID_W
 62
 13
 10
       -0.60000
 20
       -0.00000
 30
       42.95701
 11
        0.00000
 21
        0.00000
 31
       42.95701
 12
        0.00000
 22
       37.41650
 32
       42.95701
 13
       -0.60000
 23
       37.41650
 33
       42.95701
999
ZONE_TOP_N:ZONE_TOP_N_WALL_N
  0
3DFACE
  8
ZONE_TOP_N
 62
 43
 10
       37.41660
 20
       37.41660
 30
       77.20000
 11
       37.41660
 21
       37.41660
 31
       74.40000
 12
        0.00000
 22
       37.41660
 32
       74.40000
 13
        0.00000
 23
       37.41660
 33
       77.20000
999
ZONE_TOP_N:ZONE_TOP_N_WALL_N_WINDOW
  0
3DFACE
  8
ZONE_TOP_N
 62
143
 10
       37.41640
 20
       37.41660
 30
       76.90101
 11
       37.41640
 21
       37.41660
 31
       74.60000
 12
        0.00000
 22
       37.41660
 32
       74.60000
 13
        0.00000
 23
       37.41660
 33
       76.90101
999
ZONE_TOP_N:ZONE_TOP_N_WALL_W
  0
3DFACE
  8
ZONE_TOP_N
 62
 43
 10
        0.00000
 20
       37.41660
 30
       77.20000
 11
        0.00000
 21
       37.41660
 31
       74.40000
 12
        4.57320
 22
       32.84350
 32
       74.40000
 13
        4.57320
 23
       32.84350
 33
       77.20000
999
ZONE_TOP_N:CORE_TOP_WALL_N-AUTOCREATED
  0
3DFACE
  8
ZONE_TOP_N
 62
 43
 10
        8.46421
 20
       32.84350
 30
       77.20000
 11
        8.46421
 21
       32.84350
 31
       74.40000
 12
       32.84340
 22
       32.84350
 32
       74.40000
 13
       32.84340
 23
       32.84350
 33
       77.20000
999
ZONE_TOP_N:ZONE_TOP_E_WALL_N-AUTOCREATED
  0
3DFACE
  8
ZONE_TOP_N
 62
 43
 10
       32.84340
 20
       32.84350
 30
       77.20000
 11
       32.84340
 21
       32.84350
 31
       74.40000
 12
       37.41660
 22
       37.41660
 32
       74.40000
 13
       37.41660
 23
       37.41660
 33
       77.20000
999
ZONE_TOP_N:iz-TOP_TOILET_N
  0
3DFACE
  8
ZONE_TOP_N
 62
 43
 10
        4.57320
 20
       32.84350
 30
       77.20000
 11
        4.57320
 21
       32.84350
 31
       74.40000
 12
        8.46421
 22
       32.84350
 32
       74.40000
 13
        8.46421
 23
       32.84350
 33
       77.20000
999
ZONE_TOP_N:ZONE_TOP_N_FLOOR
  0
3DFACE
  8
ZONE_TOP_N
 62
  8
 10
       37.41660
 20
       37.41660
 30
       74.40000
 11
       32.84340
 21
       32.84350
 31
       74.40000
 12
        4.57320
 22
       32.84350
 32
       74.40000
 13
        0.00000
 23
       37.41660
 33
       74.40000
999
ZONE_TOP_N:ZONE_TOP_N_CEILING
  0
3DFACE
  8
ZONE_TOP_N
 62
 15
 10
        0.00000
 20
       37.41660
 30
       77.20000
 11
        4.57320
 21
       32.84350
 31
       77.20000
 12
       32.84340
 22
       32.84350
 32
       77.20000
 13
       37.41660
 23
       37.41660
 33
       77.20000
999
ZONE_TOP_N:ZONE_TOP_N_WALL_N_SHADE
  0
3DFACE
  8
ZONE_TOP_N
 62
 13
 10
       37.41640
 20
       38.01660
 30
       76.90101
 11
       37.41640
 21
       37.41660
 31
       76.90101
 12
        0.00000
 22
       37.41660
 32
       76.90101
 13
        0.00000
 23
       38.01660
 33
       76.90101
999
ZONE_TOP_N:Mir-ZONE_TOP_N_WALL_N_SHADE
  0
3DFACE
  8
ZONE_TOP_N
 62
 13
 10
        0.00000
 20
       38.01660
 30
       76.90101
 11
        0.00000
 21
       37.41660
 31
       76.90101
 12
       37.41640
 22
       37.41660
 32
       76.90101
 13
       37.41640
 23
       38.01660
 33
       76.90101
999
ZONE_TOP_E:ZONE_TOP_E_WALL_E
  0
3DFACE
  8
ZONE_TOP_E
 62
 43
 10
       37.41660
 20
        0.00000
 30
       77.20000
 11
       37.41660
 21
        0.00000
 31
       74.40000
 12
       37.41660
 22
       37.41660
 32
       74.40000
 13
       37.41660
 23
       37.41660
 33
       77.20000
999
ZONE_TOP_E:ZONE_TOP_E_WALL_E_WINDOW
  0
3DFACE
  8
ZONE_TOP_E
 62
143
 10
       37.41660
 20
        0.00000
 30
       76.90101
 11
       37.41660
 21
        0.00000
 31
       74.60000
 12
       37.41660
 22
       37.41650
 32
       74.60000
 13
       37.41660
 23
       37.41650
 33
       76.90101
999
ZONE_TOP_E:ZONE_TOP_E_WALL_N
  0
3DFACE
  8
ZONE_TOP_E
 62
 43
 10
       37.41660
 20
       37.41660
 30
       77.20000
 11
       37.41660
 21
       37.41660
 31
       74.40000
 12
       32.84340
 22
       32.84350
 32
       74.40000
 13
       32.84340
 23
       32.84350
 33
       77.20000
999
ZONE_TOP_E:CORE_TOP_WALL_E-AUTOCREATED
  0
3DFACE
  8
ZONE_TOP_E
 62
 43
 10
       32.84340
 20
       32.84350
 30
       77.20000
 11
       32.84340
 21
       32.84350
 31
       74.40000
 12
       32.84340
 22
        4.57320
 32
       74.40000
 13
       32.84340
 23
        4.57320
 33
       77.20000
999
ZONE_TOP_E:ZONE_TOP_S_WALL_E-AUTOCREATED
  0
3DFACE
  8
ZONE_TOP_E
 62
 43
 10
       32.84340
 20
        4.57320
 30
       77.20000
 11
       32.84340
 21
        4.57320
 31
       74.40000
 12
       37.41660
 22
        0.00000
 32
       74.40000
 13
       37.41660
 23
        0.00000
 33
       77.20000
999
ZONE_TOP_E:ZONE_TOP_E_FLOOR
  0
3DFACE
  8
ZONE_TOP_E
 62
  8
 10
       37.41660
 20
       37.41660
 30
       74.40000
 11
       37.41660
 21
        0.00000
 31
       74.40000
 12
       32.84340
 22
        4.57320
 32
       74.40000
 13
       32.84340
 23
       32.84350
 33
       74.40000
999
ZONE_TOP_E:ZONE_TOP_E_CEILING
  0
3DFACE
  8
ZONE_TOP_E
 62
 15
 10
       32.84340
 20
       32.84350
 30
       77.20000
 11
       32.84340
 21
        4.57320
 31
       77.20000
 12
       37.41660
 22
        0.00000
 32
       77.20000
 13
       37.41660
 23
       37.41660
 33
       77.20000
999
ZONE_TOP_E:ZONE_TOP_E_WALL_E_SHADE
  0
3DFACE
  8
ZONE_TOP_E
 62
 13
 10
       38.01660
 20
        0.00000
 30
       76.90101
 11
       37.41660
 21
       -0.00000
 31
       76.90101
 12
       37.41660
 22
       37.41650
 32
       76.90101
 13
       38.01660
 23
       37.41650
 33
       76.90101
999
ZONE_TOP_E:Mir-ZONE_TOP_E_WALL_E_SHADE
  0
3DFACE
  8
ZONE_TOP_E
 62
 13
 10
       38.01660
 20
       37.41650
 30
       76.90101
 11
       37.41660
 21
       37.41650
 31
       76.90101
 12
       37.41660
 22
       -0.00000
 32
       76.90101
 13
       38.01660
 23
        0.00000
 33
       76.90101
999
ZONE_TOP_S:ZONE_TOP_S_WALL_S
  0
3DFACE
  8
ZONE_TOP_S
 62
 43
 10
        0.00000
 20
        0.00000
 30
       77.20000
 11
        0.00000
 21
        0.00000
 31
       74.40000
 12
       37.41660
 22
        0.00000
 32
       74.40000
 13
       37.41660
 23
        0.00000
 33
       77.20000
999
ZONE_TOP_S:ZONE_TOP_S_WALL_S_WINDOW
  0
3DFACE
  8
ZONE_TOP_S
 62
143
 10
        0.00000
 20
        0.00000
 30
       76.90101
 11
        0.00000
 21
        0.00000
 31
       74.60000
 12
       37.41640
 22
        0.00000
 32
       74.60000
 13
       37.41640
 23
        0.00000
 33
       76.90101
999
ZONE_TOP_S:ZONE_TOP_S_WALL_E
  0
3DFACE
  8
ZONE_TOP_S
 62
 43
 10
       37.41660
 20
        0.00000
 30
       77.20000
 11
       37.41660
 21
        0.00000
 31
       74.40000
 12
       32.84340
 22
        4.57320
 32
       74.40000
 13
       32.84340
 23
        4.57320
 33
       77.20000
999
ZONE_TOP_S:ZONE_TOP_W_WALL_S-AUTOCREATED
  0
3DFACE
  8
ZONE_TOP_S
 62
 43
 10
        4.57320
 20
        4.57320
 30
       77.20000
 11
        4.57320
 21
        4.57320
 31
       74.40000
 12
        0.00000
 22
        0.00000
 32
       74.40000
 13
        0.00000
 23
        0.00000
 33
       77.20000
999
ZONE_TOP_S:CORE_TOP_WALL_S-AUTOCREATED
  0
3DFACE
  8
ZONE_TOP_S
 62
 43
 10
       32.84340
 20
        4.57320
 30
       77.20000
 11
       32.84340
 21
        4.57320
 31
       74.40000
 12
        8.46421
 22
        4.57320
 32
       74.40000
 13
        8.46421
 23
        4.57320
 33
       77.20000
999
ZONE_TOP_S:iz-TOP_STAIRS_S
  0
3DFACE
  8
ZONE_TOP_S
 62
 43
 10
        8.46421
 20
        4.57320
 30
       77.20000
 11
        8.46421
 21
        4.57320
 31
       74.40000
 12
        4.57320
 22
        4.57320
 32
       74.40000
 13
        4.57320
 23
        4.57320
 33
       77.20000
999
ZONE_TOP_S:ZONE_TOP_S_FLOOR
  0
3DFACE
  8
ZONE_TOP_S
 62
  8
 10
       32.84340
 20
        4.57320
 30
       74.40000
 11
       37.41660
 21
        0.00000
 31
       74.40000
 12
        0.00000
 22
        0.00000
 32
       74.40000
 13
        4.57320
 23
        4.57320
 33
       74.40000
999
ZONE_TOP_S:ZONE_TOP_S_CEILING
  0
3DFACE
  8
ZONE_TOP_S
 62
 15
 10
        4.57320
 20
        4.57320
 30
       77.20000
 11
        0.00000
 21
        0.00000
 31
       77.20000
 12
       37.41660
 22
        0.00000
 32
       77.20000
 13
       32.84340
 23
        4.57320
 33
       77.20000
999
ZONE_TOP_S:ZONE_TOP_S_WALL_S_SHADE
  0
3DFACE
  8
ZONE_TOP_S
 62
 13
 10
        0.00000
 20
       -0.60000
 30
       76.90101
 11
       -0.00000
 21
        0.00000
 31
       76.90101
 12
       37.41640
 22
        0.00000
 32
       76.90101
 13
       37.41640
 23
       -0.60000
 33
       76.90101
999
ZONE_TOP_S:Mir-ZONE_TOP_S_WALL_S_SHADE
  0
3DFACE
  8
ZONE_TOP_S
 62
 13
 10
       37.41640
 20
       -0.60000
 30
       76.90101
 11
       37.41640
 21
        0.00000
 31
       76.90101
 12
       -0.00000
 22
        0.00000
 32
       76.90101
 13
        0.00000
 23
       -0.60000
 33
       76.90101
999
ZONE_TOP_W:ZONE_TOP_W_WALL_W
  0
3DFACE
  8
ZONE_TOP_W
 62
 43
 10
        0.00000
 20
       37.41660
 30
       77.20000
 11
        0.00000
 21
       37.41660
 31
       74.40000
 12
        0.00000
 22
        0.00000
 32
       74.40000
 13
        0.00000
 23
        0.00000
 33
       77.20000
999
ZONE_TOP_W:ZONE_TOP_W_WALL_W_WINDOW
  0
3DFACE
  8
ZONE_TOP_W
 62
143
 10
        0.00000
 20
       37.41650
 30
       76.90101
 11
        0.00000
 21
       37.41650
 31
       74.60000
 12
        0.00000
 22
        0.00000
 32
       74.60000
 13
        0.00000
 23
        0.00000
 33
       76.90101
999
ZONE_TOP_W:ZONE_TOP_W_WALL_S
  0
3DFACE
  8
ZONE_TOP_W
 62
 43
 10
        0.00000
 20
        0.00000
 30
       77.20000
 11
        0.00000
 21
        0.00000
 31
       74.40000
 12
        4.57320
 22
        4.57320
 32
       74.40000
 13
        4.57320
 23
        4.57320
 33
       77.20000
999
ZONE_TOP_W:ZONE_TOP_N_WALL_W-AUTOCREATED
  0
3DFACE
  8
ZONE_TOP_W
 62
 43
 10
        4.57320
 20
       32.84350
 30
       77.20000
 11
        4.57320
 21
       32.84350
 31
       74.40000
 12
        0.00000
 22
       37.41660
 32
       74.40000
 13
        0.00000
 23
       37.41660
 33
       77.20000
999
ZONE_TOP_W:iz-TOP_TOILET_W
  0
3DFACE
  8
ZONE_TOP_W
 62
 43
 10
        4.57320
 20
       19.99336
 30
       77.20000
 11
        4.57320
 21
       19.99336
 31
       74.40000
 12
        4.57320
 22
       32.84350
 32
       74.40000
 13
        4.57320
 23
       32.84350
 33
       77.20000
999
ZONE_TOP_W:iz-TOP_STAIRS_W
  0
3DFACE
  8
ZONE_TOP_W
 62
 43
 10
        4.57320
 20
        4.57320
 30
       77.20000
 11
        4.57320
 21
        4.57320
 31
       74.40000
 12
        4.57320
 22
       19.99336
 32
       74.40000
 13
        4.57320
 23
       19.99336
 33
       77.20000
999
ZONE_TOP_W:ZONE_TOP_W_FLOOR
  0
3DFACE
  8
ZONE_TOP_W
 62
  8
 10
        4.57320
 20
       32.84350
 30
       74.40000
 11
        4.57320
 21
        4.57320
 31
       74.40000
 12
        0.00000
 22
        0.00000
 32
       74.40000
 13
        0.00000
 23
       37.41660
 33
       74.40000
999
ZONE_TOP_W:ZONE_TOP_W_CEILING
  0
3DFACE
  8
ZONE_TOP_W
 62
 15
 10
        0.00000
 20
       37.41660
 30
       77.20000
 11
        0.00000
 21
        0.00000
 31
       77.20000
 12
        4.57320
 22
        4.57320
 32
       77.20000
 13
        4.57320
 23
       32.84350
 33
       77.20000
999
ZONE_TOP_W:ZONE_TOP_W_WALL_W_SHADE
  0
3DFACE
  8
ZONE_TOP_W
 62
 13
 10
       -0.60000
 20
       37.41650
 30
       76.90101
 11
        0.00000
 21
       37.41650
 31
       76.90101
 12
        0.00000
 22
        0.00000
 32
       76.90101
 13
       -0.60000
 23
       -0.00000
 33
       76.90101
999
ZONE_TOP_W:Mir-ZONE_TOP_W_WALL_W_SHADE
  0
3DFACE
  8
ZONE_TOP_W
 62
 13
 10
       -0.60000
 20
       -0.00000
 30
       76.90101
 11
        0.00000
 21
        0.00000
 31
       76.90101
 12
        0.00000
 22
       37.41650
 32
       76.90101
 13
       -0.60000
 23
       37.41650
 33
       76.90101
999
BOT_PLENUM:BOT_PLENUM_WALL_N
  0
3DFACE
  8
BOT_PLENUM
 62
 43
 10
       37.41660
 20
       37.41660
 30
       15.90000
 11
       37.41660
 21
       37.41660
 31
       14.80000
 12
        0.00000
 22
       37.41660
 32
       14.80000
 13
        0.00000
 23
       37.41660
 33
       15.90000
999
BOT_PLENUM:BOT_PLENUM_W
  0
3DFACE
  8
BOT_PLENUM
 62
 43
 10
        0.00000
 20
       37.41660
 30
       15.90000
 11
        0.00000
 21
       37.41660
 31
       14.80000
 12
        0.00000
 22
        0.00000
 32
       14.80000
 13
        0.00000
 23
        0.00000
 33
       15.90000
999
BOT_PLENUM:BOT_PLENUM_WALL_S
  0
3DFACE
  8
BOT_PLENUM
 62
 43
 10
        0.00000
 20
        0.00000
 30
       15.90000
 11
        0.00000
 21
        0.00000
 31
       14.80000
 12
       37.41660
 22
        0.00000
 32
       14.80000
 13
       37.41660
 23
        0.00000
 33
       15.90000
999
BOT_PLENUM:BOT_PLENUM_WALL_E
  0
3DFACE
  8
BOT_PLENUM
 62
 43
 10
       37.41660
 20
        0.00000
 30
       15.90000
 11
       37.41660
 21
        0.00000
 31
       14.80000
 12
       37.41660
 22
       37.41660
 32
       14.80000
 13
       37.41660
 23
       37.41660
 33
       15.90000
999
BOT_PLENUM:iz-BOT_STAIRS_S_PLENUM
  0
3DFACE
  8
BOT_PLENUM
 62
 43
 10
        8.46421
 20
        4.57320
 30
       15.90000
 11
        8.46421
 21
        4.57320
 31
       14.80000
 12
        4.57320
 22
        4.57320
 32
       14.80000
 13
        4.57320
 23
        4.57320
 33
       15.90000
999
BOT_PLENUM:iz-BOT_STAIRS_N_PLENUM
  0
3DFACE
  8
BOT_PLENUM
 62
 43
 10
        4.57320
 20
       19.99336
 30
       15.90000
 11
        4.57320
 21
       19.99336
 31
       14.80000
 12
        8.46421
 22
       19.99336
 32
       14.80000
 13
        8.46421
 23
       19.99336
 33
       15.90000
999
BOT_PLENUM:iz-BOT_STAIRS_E_PLENUM
  0
3DFACE
  8
BOT_PLENUM
 62
 43
 10
        8.46421
 20
       19.99336
 30
       15.90000
 11
        8.46421
 21
       19.99336
 31
       14.80000
 12
        8.46421
 22
        4.57320
 32
       14.80000
 13
        8.46421
 23
        4.57320
 33
       15.90000
999
BOT_PLENUM:iz-BOT_STAIRS_W_PLENUM
  0
3DFACE
  8
BOT_PLENUM
 62
 43
 10
        4.57320
 20
        4.57320
 30
       15.90000
 11
        4.57320
 21
        4.57320
 31
       14.80000
 12
        4.57320
 22
       19.99336
 32
       14.80000
 13
        4.57320
 23
       19.99336
 33
       15.90000
999
BOT_PLENUM:iz-CORE_BOT_CEILING
  0
3DFACE
  8
BOT_PLENUM
 62
  8
 10
       32.84340
 20
       32.84350
 30
       14.80000
 11
       32.84340
 21
        4.57320
 31
       14.80000
 12
        8.46421
 22
        4.57320
 32
       14.80000
 13
        8.46421
 23
       32.84350
 33
       14.80000
999
BOT_PLENUM:iz-ZONE_BOT_N_CEILING
  0
3DFACE
  8
BOT_PLENUM
 62
  8
 10
       37.41660
 20
       37.41660
 30
       14.80000
 11
       32.84340
 21
       32.84350
 31
       14.80000
 12
        4.57320
 22
       32.84350
 32
       14.80000
 13
        0.00000
 23
       37.41660
 33
       14.80000
999
BOT_PLENUM:iz-ZONE_BOT_E_CEILING
  0
3DFACE
  8
BOT_PLENUM
 62
  8
 10
       37.41660
 20
       37.41660
 30
       14.80000
 11
       37.41660
 21
        0.00000
 31
       14.80000
 12
       32.84340
 22
        4.57320
 32
       14.80000
 13
       32.84340
 23
       32.84350
 33
       14.80000
999
BOT_PLENUM:iz-ZONE_BOT_S_CEILING
  0
3DFACE
  8
BOT_PLENUM
 62
  8
 10
       32.84340
 20
        4.57320
 30
       14.80000
 11
       37.41660
 21
        0.00000
 31
       14.80000
 12
        0.00000
 22
        0.00000
 32
       14.80000
 13
        4.57320
 23
        4.57320
 33
       14.80000
999
BOT_PLENUM:iz-ZONE_BOT_W_CEILING
  0
3DFACE
  8
BOT_PLENUM
 62
  8
 10
        4.57320
 20
       32.84350
 30
       14.80000
 11
        4.57320
 21
        4.57320
 31
       14.80000
 12
        0.00000
 22
        0.00000
 32
       14.80000
 13
        0.00000
 23
       37.41660
 33
       14.80000
999
BOT_PLENUM:iz-BOT_TOILET_CEILING
  0
3DFACE
  8
BOT_PLENUM
 62
  8
 10
        8.46421
 20
       32.84350
 30
       14.80000
 11
        8.46421
 21
       19.99336
 31
       14.80000
 12
        4.57320
 22
       19.99336
 32
       14.80000
 13
        4.57320
 23
       32.84350
 33
       14.80000
999
BOT_PLENUM:iz-BOT_STAIRS_CEILING
  0
3DFACE
  8
BOT_PLENUM
 62
  8
 10
        8.46421
 20
       19.99336
 30
       15.90000
 11
        8.46421
 21
        4.57320
 31
       15.90000
 12
        4.57320
 22
        4.57320
 32
       15.90000
 13
        4.57320
 23
       19.99336
 33
       15.90000
999
BOT_PLENUM:BOT_PLENUM_CEILING
  0
3DFACE
  8
BOT_PLENUM
 62
 15
 10
        0.00000
 20
       37.41660
 30
       15.90000
 11
        0.00000
 21
        0.00000
 31
       15.90000
 12
       37.41660
 22
        0.00000
 32
       15.90000
 13
       37.41660
 23
       37.41660
 33
       15.90000
999
MID_PLENUM:MID_PLENUM_WALL_N
  0
3DFACE
  8
MID_PLENUM
 62
 43
 10
       37.41660
 20
       37.41660
 30
       44.35600
 11
       37.41660
 21
       37.41660
 31
       43.25600
 12
        0.00000
 22
       37.41660
 32
       43.25600
 13
        0.00000
 23
       37.41660
 33
       44.35600
999
MID_PLENUM:MID_PLENUM_WALL_W
  0
3DFACE
  8
MID_PLENUM
 62
 43
 10
        0.00000
 20
       37.41660
 30
       44.35600
 11
        0.00000
 21
       37.41660
 31
       43.25600
 12
        0.00000
 22
        0.00000
 32
       43.25600
 13
        0.00000
 23
        0.00000
 33
       44.35600
999
MID_PLENUM:MID_PLENUM_WALL_S
  0
3DFACE
  8
MID_PLENUM
 62
 43
 10
        0.00000
 20
        0.00000
 30
       44.35600
 11
        0.00000
 21
        0.00000
 31
       43.25600
 12
       37.41660
 22
        0.00000
 32
       43.25600
 13
       37.41660
 23
        0.00000
 33
       44.35600
999
MID_PLENUM:MID_PLENUM_WALL_E
  0
3DFACE
  8
MID_PLENUM
 62
 43
 10
       37.41660
 20
        0.00000
 30
       44.35600
 11
       37.41660
 21
        0.00000
 31
       43.25600
 12
       37.41660
 22
       37.41660
 32
       43.25600
 13
       37.41660
 23
       37.41660
 33
       44.35600
999
MID_PLENUM:iz-MID_STAIRS_S_PLENUM
  0
3DFACE
  8
MID_PLENUM
 62
 43
 10
        8.46421
 20
        4.57320
 30
       44.35600
 11
        8.46421
 21
        4.57320
 31
       43.25600
 12
        4.57320
 22
        4.57320
 32
       43.25600
 13
        4.57320
 23
        4.57320
 33
       44.35600
999
MID_PLENUM:iz-MID_STAIRS_N_PLENUM
  0
3DFACE
  8
MID_PLENUM
 62
 43
 10
        4.57320
 20
       19.99336
 30
       44.35600
 11
        4.57320
 21
       19.99336
 31
       43.25600
 12
        8.46421
 22
       19.99336
 32
       43.25600
 13
        8.46421
 23
       19.99336
 33
       44.35600
999
MID_PLENUM:iz-MID_STAIRS_E_PLENUM
  0
3DFACE
  8
MID_PLENUM
 62
 43
 10
        8.46421
 20
       19.99336
 30
       44.35600
 11
        8.46421
 21
       19.99336
 31
       43.25600
 12
        8.46421
 22
        4.57320
 32
       43.25600
 13
        8.46421
 23
        4.57320
 33
       44.35600
999
MID_PLENUM:iz-MID_STAIRS_W_PLENUM
  0
3DFACE
  8
MID_PLENUM
 62
 43
 10
        4.57320
 20
        4.57320
 30
       44.35600
 11
        4.57320
 21
        4.57320
 31
       43.25600
 12
        4.57320
 22
       19.99336
 32
       43.25600
 13
        4.57320
 23
       19.99336
 33
       44.35600
999
MID_PLENUM:iz-CORE_MID1_CEILING
  0
3DFACE
  8
MID_PLENUM
 62
  8
 10
       32.84340
 20
       18.70835
 30
       43.25600
 11
       32.84340
 21
        4.57320
 31
       43.25600
 12
       20.65380
 22
        4.57320
 32
       43.25600
 13
       20.65380
 23
       18.70835
 33
       43.25600
999
MID_PLENUM:iz-CORE_MID2_CEILING
  0
3DFACE
  8
MID_PLENUM
 62
  8
 10
       20.65380
 20
       18.70835
 30
       43.25600
 11
       20.65380
 21
        4.57320
 31
       43.25600
 12
        8.46421
 22
        4.57320
 32
       43.25600
 13
        8.46421
 23
       18.70835
 33
       43.25600
999
MID_PLENUM:iz-CORE_MID3_CEILING
  0
3DFACE
  8
MID_PLENUM
 62
  8
 10
       20.65380
 20
       32.84350
 30
       43.25600
 11
       20.65380
 21
       18.70835
 31
       43.25600
 12
        8.46421
 22
       18.70835
 32
       43.25600
 13
        8.46421
 23
       32.84350
 33
       43.25600
999
MID_PLENUM:iz-CORE_MID4_CEILING
  0
3DFACE
  8
MID_PLENUM
 62
  8
 10
       32.84340
 20
       32.84350
 30
       43.25600
 11
       32.84340
 21
       18.70835
 31
       43.25600
 12
       20.65380
 22
       18.70835
 32
       43.25600
 13
       20.65380
 23
       32.84350
 33
       43.25600
999
MID_PLENUM:iz-ZONE_MID_N_CEILING
  0
3DFACE
  8
MID_PLENUM
 62
  8
 10
       37.41660
 20
       37.41660
 30
       43.25600
 11
       32.84340
 21
       32.84350
 31
       43.25600
 12
        4.57320
 22
       32.84350
 32
       43.25600
 13
        0.00000
 23
       37.41660
 33
       43.25600
999
MID_PLENUM:iz-ZONE_MID_E_CEILING
  0
3DFACE
  8
MID_PLENUM
 62
  8
 10
       37.41660
 20
       37.41660
 30
       43.25600
 11
       37.41660
 21
        0.00000
 31
       43.25600
 12
       32.84340
 22
        4.57320
 32
       43.25600
 13
       32.84340
 23
       32.84350
 33
       43.25600
999
MID_PLENUM:iz-ZONE_MID_S_CEILING
  0
3DFACE
  8
MID_PLENUM
 62
  8
 10
       32.84340
 20
        4.57320
 30
       43.25600
 11
       37.41660
 21
        0.00000
 31
       43.25600
 12
        0.00000
 22
        0.00000
 32
       43.25600
 13
        4.57320
 23
        4.57320
 33
       43.25600
999
MID_PLENUM:iz-ZONE_MID_W_CEILING
  0
3DFACE
  8
MID_PLENUM
 62
  8
 10
        4.57320
 20
       32.84350
 30
       43.25600
 11
        4.57320
 21
        4.57320
 31
       43.25600
 12
        0.00000
 22
        0.00000
 32
       43.25600
 13
        0.00000
 23
       37.41660
 33
       43.25600
999
MID_PLENUM:iz-MID_TOILET_CEILING
  0
3DFACE
  8
MID_PLENUM
 62
  8
 10
        8.46421
 20
       32.84350
 30
       43.25600
 11
        8.46421
 21
       19.99336
 31
       43.25600
 12
        4.57320
 22
       19.99336
 32
       43.25600
 13
        4.57320
 23
       32.84350
 33
       43.25600
999
MID_PLENUM:iz-MID_STAIRS_CEILING
  0
3DFACE
  8
MID_PLENUM
 62
  8
 10
        8.46421
 20
       19.99336
 30
       44.35600
 11
        8.46421
 21
        4.57320
 31
       44.35600
 12
        4.57320
 22
        4.57320
 32
       44.35600
 13
        4.57320
 23
       19.99336
 33
       44.35600
999
MID_PLENUM:MID_PLENUM_CEILING
  0
3DFACE
  8
MID_PLENUM
 62
 15
 10
        0.00000
 20
       37.41660
 30
       44.35600
 11
        0.00000
 21
        0.00000
 31
       44.35600
 12
       37.41660
 22
        0.00000
 32
       44.35600
 13
       37.41660
 23
       37.41660
 33
       44.35600
999
TOP_PLENUM:TOP_PLENUM_WALL_N
  0
3DFACE
  8
TOP_PLENUM
 62
 43
 10
        0.00000
 20
        0.00000
 30
       78.30000
 11
        0.00000
 21
        0.00000
 31
       77.20000
 12
       37.41660
 22
        0.00000
 32
       77.20000
 13
       37.41660
 23
        0.00000
 33
       78.30000
999
TOP_PLENUM:TOP_PLENUM_WALL_E
  0
3DFACE
  8
TOP_PLENUM
 62
 43
 10
       37.41660
 20
        0.00000
 30
       78.30000
 11
       37.41660
 21
        0.00000
 31
       77.20000
 12
       37.41660
 22
       37.41660
 32
       77.20000
 13
       37.41660
 23
       37.41660
 33
       78.30000
999
TOP_PLENUM:TOP_PLENUM_WALL_W
  0
3DFACE
  8
TOP_PLENUM
 62
 43
 10
        0.00000
 20
       37.41660
 30
       78.30000
 11
        0.00000
 21
       37.41660
 31
       77.20000
 12
        0.00000
 22
        0.00000
 32
       77.20000
 13
        0.00000
 23
        0.00000
 33
       78.30000
999
TOP_PLENUM:TOP_PLENUM_WALL_S
  0
3DFACE
  8
TOP_PLENUM
 62
 43
 10
       37.41660
 20
       37.41660
 30
       78.30000
 11
       37.41660
 21
       37.41660
 31
       77.20000
 12
        0.00000
 22
       37.41660
 32
       77.20000
 13
        0.00000
 23
       37.41660
 33
       78.30000
999
TOP_PLENUM:iz-TOP_STAIRS_S_PLENUM
  0
3DFACE
  8
TOP_PLENUM
 62
 43
 10
        8.46421
 20
        4.57320
 30
       78.30000
 11
        8.46421
 21
        4.57320
 31
       77.20000
 12
        4.57320
 22
        4.57320
 32
       77.20000
 13
        4.57320
 23
        4.57320
 33
       78.30000
999
TOP_PLENUM:iz-TOP_STAIRS_N_PLENUM
  0
3DFACE
  8
TOP_PLENUM
 62
 43
 10
        4.57320
 20
       19.99336
 30
       78.30000
 11
        4.57320
 21
       19.99336
 31
       77.20000
 12
        8.46421
 22
       19.99336
 32
       77.20000
 13
        8.46421
 23
       19.99336
 33
       78.30000
999
TOP_PLENUM:iz-TOP_STAIRS_E_PLENUM
  0
3DFACE
  8
TOP_PLENUM
 62
 43
 10
        8.46421
 20
       19.99336
 30
       78.30000
 11
        8.46421
 21
       19.99336
 31
       77.20000
 12
        8.46421
 22
        4.57320
 32
       77.20000
 13
        8.46421
 23
        4.57320
 33
       78.30000
999
TOP_PLENUM:iz-TOP_STAIRS_W_PLENUM
  0
3DFACE
  8
TOP_PLENUM
 62
 43
 10
        4.57320
 20
        4.57320
 30
       78.30000
 11
        4.57320
 21
        4.57320
 31
       77.20000
 12
        4.57320
 22
       19.99336
 32
       77.20000
 13
        4.57320
 23
       19.99336
 33
       78.30000
999
TOP_PLENUM:iz-CORE_TOP_CEILING
  0
3DFACE
  8
TOP_PLENUM
 62
  8
 10
       32.84340
 20
       32.84350
 30
       77.20000
 11
       32.84340
 21
        4.57320
 31
       77.20000
 12
        8.46421
 22
        4.57320
 32
       77.20000
 13
        8.46421
 23
       32.84350
 33
       77.20000
999
TOP_PLENUM:iz-ZONE_TOP_N_CEILING
  0
3DFACE
  8
TOP_PLENUM
 62
  8
 10
       37.41660
 20
       37.41660
 30
       77.20000
 11
       32.84340
 21
       32.84350
 31
       77.20000
 12
        4.57320
 22
       32.84350
 32
       77.20000
 13
        0.00000
 23
       37.41660
 33
       77.20000
999
TOP_PLENUM:iz-ZONE_TOP_E_CEILING
  0
3DFACE
  8
TOP_PLENUM
 62
  8
 10
       37.41660
 20
       37.41660
 30
       77.20000
 11
       37.41660
 21
        0.00000
 31
       77.20000
 12
       32.84340
 22
        4.57320
 32
       77.20000
 13
       32.84340
 23
       32.84350
 33
       77.20000
999
TOP_PLENUM:iz-ZONE_TOP_S_CEILING
  0
3DFACE
  8
TOP_PLENUM
 62
  8
 10
       32.84340
 20
        4.57320
 30
       77.20000
 11
       37.41660
 21
        0.00000
 31
       77.20000
 12
        0.00000
 22
        0.00000
 32
       77.20000
 13
        4.57320
 23
        4.57320
 33
       77.20000
999
TOP_PLENUM:iz-ZONE_TOP_W_CEILING
  0
3DFACE
  8
TOP_PLENUM
 62
  8
 10
        4.57320
 20
       32.84350
 30
       77.20000
 11
        4.57320
 21
        4.57320
 31
       77.20000
 12
        0.00000
 22
        0.00000
 32
       77.20000
 13
        0.00000
 23
       37.41660
 33
       77.20000
999
TOP_PLENUM:iz-TOP_TOILET_CEILING
  0
3DFACE
  8
TOP_PLENUM
 62
  8
 10
        8.46421
 20
       32.84350
 30
       77.20000
 11
        8.46421
 21
       19.99336
 31
       77.20000
 12
        4.57320
 22
       19.99336
 32
       77.20000
 13
        4.57320
 23
       32.84350
 33
       77.20000
999
TOP_PLENUM:iz-TOP_STAIRS_CEILING
  0
3DFACE
  8
TOP_PLENUM
 62
  8
 10
        8.46421
 20
       19.99336
 30
       78.30000
 11
        8.46421
 21
        4.57320
 31
       78.30000
 12
        4.57320
 22
        4.57320
 32
       78.30000
 13
        4.57320
 23
       19.99336
 33
       78.30000
999
TOP_PLENUM:BUILDING_ROOF
  0
3DFACE
  8
TOP_PLENUM
 62
 15
 10
        0.00000
 20
       37.41660
 30
       78.30000
 11
        0.00000
 21
        0.00000
 31
       78.30000
 12
       37.41660
 22
        0.00000
 32
       78.30000
 13
       37.41660
 23
       37.41660
 33
       78.30000
999
BOT_TOILET:BOT_TOILET_S
  0
3DFACE
  8
BOT_TOILET
 62
 43
 10
        4.57320
 20
       19.99336
 30
       14.80000
 11
        4.57320
 21
       19.99336
 31
       12.00000
 12
        8.46421
 22
       19.99336
 32
       12.00000
 13
        8.46421
 23
       19.99336
 33
       14.80000
999
BOT_TOILET:BOT_TOILET_N
  0
3DFACE
  8
BOT_TOILET
 62
 43
 10
        8.46421
 20
       32.84350
 30
       14.80000
 11
        8.46421
 21
       32.84350
 31
       12.00000
 12
        4.57320
 22
       32.84350
 32
       12.00000
 13
        4.57320
 23
       32.84350
 33
       14.80000
999
BOT_TOILET:BOT_TOILET_E
  0
3DFACE
  8
BOT_TOILET
 62
 43
 10
        8.46421
 20
       19.99336
 30
       14.80000
 11
        8.46421
 21
       19.99336
 31
       12.00000
 12
        8.46421
 22
       32.84350
 32
       12.00000
 13
        8.46421
 23
       32.84350
 33
       14.80000
999
BOT_TOILET:BOT_TOILET_W
  0
3DFACE
  8
BOT_TOILET
 62
 43
 10
        4.57320
 20
       32.84350
 30
       14.80000
 11
        4.57320
 21
       32.84350
 31
       12.00000
 12
        4.57320
 22
       19.99336
 32
       12.00000
 13
        4.57320
 23
       19.99336
 33
       14.80000
999
BOT_TOILET:BOT_TOILET_FLOOR
  0
3DFACE
  8
BOT_TOILET
 62
  8
 10
        8.46421
 20
       32.84350
 30
       12.00000
 11
        8.46421
 21
       19.99336
 31
       12.00000
 12
        4.57320
 22
       19.99336
 32
       12.00000
 13
        4.57320
 23
       32.84350
 33
       12.00000
999
BOT_TOILET:BOT_TOILET_CEILING
  0
3DFACE
  8
BOT_TOILET
 62
 15
 10
        4.57320
 20
       32.84350
 30
       14.80000
 11
        4.57320
 21
       19.99336
 31
       14.80000
 12
        8.46421
 22
       19.99336
 32
       14.80000
 13
        8.46421
 23
       32.84350
 33
       14.80000
999
BOT_STAIRS:BOT_STAIRS_S
  0
3DFACE
  8
BOT_STAIRS
 62
 43
 10
        4.57320
 20
        4.57320
 30
       14.80000
 11
        4.57320
 21
        4.57320
 31
       12.00000
 12
        8.46421
 22
        4.57320
 32
       12.00000
 13
        8.46421
 23
        4.57320
 33
       14.80000
999
BOT_STAIRS:BOT_STAIRS_E
  0
3DFACE
  8
BOT_STAIRS
 62
 43
 10
        8.46421
 20
        4.57320
 30
       14.80000
 11
        8.46421
 21
        4.57320
 31
       12.00000
 12
        8.46421
 22
       19.99336
 32
       12.00000
 13
        8.46421
 23
       19.99336
 33
       14.80000
999
BOT_STAIRS:BOT_STAIRS_W
  0
3DFACE
  8
BOT_STAIRS
 62
 43
 10
        4.57320
 20
       19.99336
 30
       14.80000
 11
        4.57320
 21
       19.99336
 31
       12.00000
 12
        4.57320
 22
        4.57320
 32
       12.00000
 13
        4.57320
 23
        4.57320
 33
       14.80000
999
BOT_STAIRS:BOT_STAIRS_S_PLENUM
  0
3DFACE
  8
BOT_STAIRS
 62
 43
 10
        4.57320
 20
        4.57320
 30
       15.90000
 11
        4.57320
 21
        4.57320
 31
       14.80000
 12
        8.46421
 22
        4.57320
 32
       14.80000
 13
        8.46421
 23
        4.57320
 33
       15.90000
999
BOT_STAIRS:BOT_STAIRS_N_PLENUM
  0
3DFACE
  8
BOT_STAIRS
 62
 43
 10
        8.46421
 20
       19.99336
 30
       15.90000
 11
        8.46421
 21
       19.99336
 31
       14.80000
 12
        4.57320
 22
       19.99336
 32
       14.80000
 13
        4.57320
 23
       19.99336
 33
       15.90000
999
BOT_STAIRS:BOT_STAIRS_E_PLENUM
  0
3DFACE
  8
BOT_STAIRS
 62
 43
 10
        8.46421
 20
        4.57320
 30
       15.90000
 11
        8.46421
 21
        4.57320
 31
       14.80000
 12
        8.46421
 22
       19.99336
 32
       14.80000
 13
        8.46421
 23
       19.99336
 33
       15.90000
999
BOT_STAIRS:BOT_STAIRS_W_PLENUM
  0
3DFACE
  8
BOT_STAIRS
 62
 43
 10
        4.57320
 20
       19.99336
 30
       15.90000
 11
        4.57320
 21
       19.99336
 31
       14.80000
 12
        4.57320
 22
        4.57320
 32
       14.80000
 13
        4.57320
 23
        4.57320
 33
       15.90000
999
BOT_STAIRS:iz-BOT_TOILET_S
  0
3DFACE
  8
BOT_STAIRS
 62
 43
 10
        8.46421
 20
       19.99336
 30
       14.80000
 11
        8.46421
 21
       19.99336
 31
       12.00000
 12
        4.57320
 22
       19.99336
 32
       12.00000
 13
        4.57320
 23
       19.99336
 33
       14.80000
999
BOT_STAIRS:BOT_STAIRS_FLOOR
  0
3DFACE
  8
BOT_STAIRS
 62
  8
 10
        8.46421
 20
       19.99336
 30
       12.00000
 11
        8.46421
 21
        4.57320
 31
       12.00000
 12
        4.57320
 22
        4.57320
 32
       12.00000
 13
        4.57320
 23
       19.99336
 33
       12.00000
999
BOT_STAIRS:BOT_STAIRS_CEILING
  0
3DFACE
  8
BOT_STAIRS
 62
 15
 10
        4.57320
 20
       19.99336
 30
       15.90000
 11
        4.57320
 21
        4.57320
 31
       15.90000
 12
        8.46421
 22
        4.57320
 32
       15.90000
 13
        8.46421
 23
       19.99336
 33
       15.90000
999
MID_TOILET:MID_TOILET_S
  0
3DFACE
  8
MID_TOILET
 62
 43
 10
        4.57320
 20
       19.99336
 30
       43.25600
 11
        4.57320
 21
       19.99336
 31
       40.45600
 12
        8.46421
 22
       19.99336
 32
       40.45600
 13
        8.46421
 23
       19.99336
 33
       43.25600
999
MID_TOILET:MID_TOILET_N
  0
3DFACE
  8
MID_TOILET
 62
 43
 10
        8.46421
 20
       32.84350
 30
       43.25600
 11
        8.46421
 21
       32.84350
 31
       40.45600
 12
        4.57320
 22
       32.84350
 32
       40.45600
 13
        4.57320
 23
       32.84350
 33
       43.25600
999
MID_TOILET:MID_TOILET_E
  0
3DFACE
  8
MID_TOILET
 62
 43
 10
        8.46421
 20
       19.99336
 30
       43.25600
 11
        8.46421
 21
       19.99336
 31
       40.45600
 12
        8.46421
 22
       32.84350
 32
       40.45600
 13
        8.46421
 23
       32.84350
 33
       43.25600
999
MID_TOILET:MID_TOILET_W
  0
3DFACE
  8
MID_TOILET
 62
 43
 10
        4.57320
 20
       32.84350
 30
       43.25600
 11
        4.57320
 21
       32.84350
 31
       40.45600
 12
        4.57320
 22
       19.99336
 32
       40.45600
 13
        4.57320
 23
       19.99336
 33
       43.25600
999
MID_TOILET:MID_TOILET_FLOOR
  0
3DFACE
  8
MID_TOILET
 62
  8
 10
        8.46421
 20
       32.84350
 30
       40.45600
 11
        8.46421
 21
       19.99336
 31
       40.45600
 12
        4.57320
 22
       19.99336
 32
       40.45600
 13
        4.57320
 23
       32.84350
 33
       40.45600
999
MID_TOILET:MID_TOILET_CEILING
  0
3DFACE
  8
MID_TOILET
 62
 15
 10
        4.57320
 20
       32.84350
 30
       43.25600
 11
        4.57320
 21
       19.99336
 31
       43.25600
 12
        8.46421
 22
       19.99336
 32
       43.25600
 13
        8.46421
 23
       32.84350
 33
       43.25600
999
MID_STAIRS:MID_STAIRS_S
  0
3DFACE
  8
MID_STAIRS
 62
 43
 10
        4.57320
 20
        4.57320
 30
       43.25600
 11
        4.57320
 21
        4.57320
 31
       40.45600
 12
        8.46421
 22
        4.57320
 32
       40.45600
 13
        8.46421
 23
        4.57320
 33
       43.25600
999
MID_STAIRS:MID_STAIRS_E
  0
3DFACE
  8
MID_STAIRS
 62
 43
 10
        8.46421
 20
        4.57320
 30
       43.25600
 11
        8.46421
 21
        4.57320
 31
       40.45600
 12
        8.46421
 22
       19.99336
 32
       40.45600
 13
        8.46421
 23
       19.99336
 33
       43.25600
999
MID_STAIRS:MID_STAIRS_W
  0
3DFACE
  8
MID_STAIRS
 62
 43
 10
        4.57320
 20
       19.99336
 30
       43.25600
 11
        4.57320
 21
       19.99336
 31
       40.45600
 12
        4.57320
 22
        4.57320
 32
       40.45600
 13
        4.57320
 23
        4.57320
 33
       43.25600
999
MID_STAIRS:MID_STAIRS_S_PLENUM
  0
3DFACE
  8
MID_STAIRS
 62
 43
 10
        4.57320
 20
        4.57320
 30
       44.35600
 11
        4.57320
 21
        4.57320
 31
       43.25600
 12
        8.46421
 22
        4.57320
 32
       43.25600
 13
        8.46421
 23
        4.57320
 33
       44.35600
999
MID_STAIRS:MID_STAIRS_N_PLENUM
  0
3DFACE
  8
MID_STAIRS
 62
 43
 10
        8.46421
 20
       19.99336
 30
       44.35600
 11
        8.46421
 21
       19.99336
 31
       43.25600
 12
        4.57320
 22
       19.99336
 32
       43.25600
 13
        4.57320
 23
       19.99336
 33
       44.35600
999
MID_STAIRS:MID_STAIRS_E_PLENUM
  0
3DFACE
  8
MID_STAIRS
 62
 43
 10
        8.46421
 20
        4.57320
 30
       44.35600
 11
        8.46421
 21
        4.57320
 31
       43.25600
 12
        8.46421
 22
       19.99336
 32
       43.25600
 13
        8.46421
 23
       19.99336
 33
       44.35600
999
MID_STAIRS:MID_STAIRS_W_PLENUM
  0
3DFACE
  8
MID_STAIRS
 62
 43
 10
        4.57320
 20
       19.99336
 30
       44.35600
 11
        4.57320
 21
       19.99336
 31
       43.25600
 12
        4.57320
 22
        4.57320
 32
       43.25600
 13
        4.57320
 23
        4.57320
 33
       44.35600
999
MID_STAIRS:iz-MID_TOILET_S
  0
3DFACE
  8
MID_STAIRS
 62
 43
 10
        8.46421
 20
       19.99336
 30
       43.25600
 11
        8.46421
 21
       19.99336
 31
       40.45600
 12
        4.57320
 22
       19.99336
 32
       40.45600
 13
        4.57320
 23
       19.99336
 33
       43.25600
999
MID_STAIRS:MID_STAIRS_FLOOR
  0
3DFACE
  8
MID_STAIRS
 62
  8
 10
        8.46421
 20
       19.99336
 30
       40.45600
 11
        8.46421
 21
        4.57320
 31
       40.45600
 12
        4.57320
 22
        4.57320
 32
       40.45600
 13
        4.57320
 23
       19.99336
 33
       40.45600
999
MID_STAIRS:MID_STAIRS_CEILING
  0
3DFACE
  8
MID_STAIRS
 62
 15
 10
        4.57320
 20
       19.99336
 30
       44.35600
 11
        4.57320
 21
        4.57320
 31
       44.35600
 12
        8.46421
 22
        4.57320
 32
       44.35600
 13
        8.46421
 23
       19.99336
 33
       44.35600
999
TOP_TOILET:TOP_TOILET_S
  0
3DFACE
  8
TOP_TOILET
 62
 43
 10
        4.57320
 20
       19.99336
 30
       77.20000
 11
        4.57320
 21
       19.99336
 31
       74.40000
 12
        8.46421
 22
       19.99336
 32
       74.40000
 13
        8.46421
 23
       19.99336
 33
       77.20000
999
TOP_TOILET:TOP_TOILET_N
  0
3DFACE
  8
TOP_TOILET
 62
 43
 10
        8.46421
 20
       32.84350
 30
       77.20000
 11
        8.46421
 21
       32.84350
 31
       74.40000
 12
        4.57320
 22
       32.84350
 32
       74.40000
 13
        4.57320
 23
       32.84350
 33
       77.20000
999
TOP_TOILET:TOP_TOILET_E
  0
3DFACE
  8
TOP_TOILET
 62
 43
 10
        8.46421
 20
       19.99336
 30
       77.20000
 11
        8.46421
 21
       19.99336
 31
       74.40000
 12
        8.46421
 22
       32.84350
 32
       74.40000
 13
        8.46421
 23
       32.84350
 33
       77.20000
999
TOP_TOILET:TOP_TOILET_W
  0
3DFACE
  8
TOP_TOILET
 62
 43
 10
        4.57320
 20
       32.84350
 30
       77.20000
 11
        4.57320
 21
       32.84350
 31
       74.40000
 12
        4.57320
 22
       19.99336
 32
       74.40000
 13
        4.57320
 23
       19.99336
 33
       77.20000
999
TOP_TOILET:TOP_TOILET_FLOOR
  0
3DFACE
  8
TOP_TOILET
 62
  8
 10
        8.46421
 20
       32.84350
 30
       74.40000
 11
        8.46421
 21
       19.99336
 31
       74.40000
 12
        4.57320
 22
       19.99336
 32
       74.40000
 13
        4.57320
 23
       32.84350
 33
       74.40000
999
TOP_TOILET:TOP_TOILET_CEILING
  0
3DFACE
  8
TOP_TOILET
 62
 15
 10
        4.57320
 20
       32.84350
 30
       77.20000
 11
        4.57320
 21
       19.99336
 31
       77.20000
 12
        8.46421
 22
       19.99336
 32
       77.20000
 13
        8.46421
 23
       32.84350
 33
       77.20000
999
TOP_STAIRS:TOP_STAIRS_S
  0
3DFACE
  8
TOP_STAIRS
 62
 43
 10
        4.57320
 20
        4.57320
 30
       77.20000
 11
        4.57320
 21
        4.57320
 31
       74.40000
 12
        8.46421
 22
        4.57320
 32
       74.40000
 13
        8.46421
 23
        4.57320
 33
       77.20000
999
TOP_STAIRS:TOP_STAIRS_E
  0
3DFACE
  8
TOP_STAIRS
 62
 43
 10
        8.46421
 20
        4.57320
 30
       77.20000
 11
        8.46421
 21
        4.57320
 31
       74.40000
 12
        8.46421
 22
       19.99336
 32
       74.40000
 13
        8.46421
 23
       19.99336
 33
       77.20000
999
TOP_STAIRS:TOP_STAIRS_W
  0
3DFACE
  8
TOP_STAIRS
 62
 43
 10
        4.57320
 20
       19.99336
 30
       77.20000
 11
        4.57320
 21
       19.99336
 31
       74.40000
 12
        4.57320
 22
        4.57320
 32
       74.40000
 13
        4.57320
 23
        4.57320
 33
       77.20000
999
TOP_STAIRS:TOP_STAIRS_S_PLENUM
  0
3DFACE
  8
TOP_STAIRS
 62
 43
 10
        4.57320
 20
        4.57320
 30
       78.30000
 11
        4.57320
 21
        4.57320
 31
       77.20000
 12
        8.46421
 22
        4.57320
 32
       77.20000
 13
        8.46421
 23
        4.57320
 33
       78.30000
999
TOP_STAIRS:TOP_STAIRS_N_PLENUM
  0
3DFACE
  8
TOP_STAIRS
 62
 43
 10
        8.46421
 20
       19.99336
 30
       78.30000
 11
        8.46421
 21
       19.99336
 31
       77.20000
 12
        4.57320
 22
       19.99336
 32
       77.20000
 13
        4.57320
 23
       19.99336
 33
       78.30000
999
TOP_STAIRS:TOP_STAIRS_E_PLENUM
  0
3DFACE
  8
TOP_STAIRS
 62
 43
 10
        8.46421
 20
        4.57320
 30
       78.30000
 11
        8.46421
 21
        4.57320
 31
       77.20000
 12
        8.46421
 22
       19.99336
 32
       77.20000
 13
        8.46421
 23
       19.99336
 33
       78.30000
999
TOP_STAIRS:TOP_STAIRS_W_PLENUM
  0
3DFACE
  8
TOP_STAIRS
 62
 43
 10
        4.57320
 20
       19.99336
 30
       78.30000
 11
        4.57320
 21
       19.99336
 31
       77.20000
 12
        4.57320
 22
        4.57320
 32
       77.20000
 13
        4.57320
 23
        4.57320
 33
       78.30000
999
TOP_STAIRS:iz-TOP_TOILET_S
  0
3DFACE
  8
TOP_STAIRS
 62
 43
 10
        8.46421
 20
       19.99336
 30
       77.20000
 11
        8.46421
 21
       19.99336
 31
       74.40000
 12
        4.57320
 22
       19.99336
 32
       74.40000
 13
        4.57320
 23
       19.99336
 33
       77.20000
999
TOP_STAIRS:TOP_STAIRS_FLOOR
  0
3DFACE
  8
TOP_STAIRS
 62
  8
 10
        8.46421
 20
       19.99336
 30
       74.40000
 11
        8.46421
 21
        4.57320
 31
       74.40000
 12
        4.57320
 22
        4.57320
 32
       74.40000
 13
        4.57320
 23
       19.99336
 33
       74.40000
999
TOP_STAIRS:TOP_STAIRS_CEILING
  0
3DFACE
  8
TOP_STAIRS
 62
 15
 10
        4.57320
 20
       19.99336
 30
       78.30000
 11
        4.57320
 21
        4.57320
 31
       78.30000
 12
        8.46421
 22
        4.57320
 32
       78.30000
 13
        8.46421
 23
       19.99336
 33
       78.30000
999
BOT_PARKING:BOT_PARKING_SURFACE_S
  0
3DFACE
  8
BOT_PARKING
 62
 43
 10
        0.00000
 20
        0.00000
 30
        4.00000
 11
        0.00000
 21
        0.00000
 31
        0.00000
 12
       37.41660
 22
        0.00000
 32
        0.00000
 13
       37.41660
 23
        0.00000
 33
        4.00000
999
BOT_PARKING:BOT_PARKING_SURFACE_N
  0
3DFACE
  8
BOT_PARKING
 62
 43
 10
       37.41660
 20
       37.41660
 30
        4.00000
 11
       37.41660
 21
       37.41660
 31
        0.00000
 12
        0.00000
 22
       37.41660
 32
        0.00000
 13
        0.00000
 23
       37.41660
 33
        4.00000
999
BOT_PARKING:BOT_PARKING_SURFACE_E
  0
3DFACE
  8
BOT_PARKING
 62
 43
 10
       37.41660
 20
        0.00000
 30
        4.00000
 11
       37.41660
 21
        0.00000
 31
        0.00000
 12
       37.41660
 22
       37.41660
 32
        0.00000
 13
       37.41660
 23
       37.41660
 33
        4.00000
999
BOT_PARKING:BOT_PARKING_SURFACE_W
  0
3DFACE
  8
BOT_PARKING
 62
 43
 10
        0.00000
 20
       37.41660
 30
        4.00000
 11
        0.00000
 21
       37.41660
 31
        0.00000
 12
        0.00000
 22
        0.00000
 32
        0.00000
 13
        0.00000
 23
        0.00000
 33
        4.00000
999
BOT_PARKING:BOT_PARKING_SURFACE_INSIDE_S
  0
3DFACE
  8
BOT_PARKING
 62
 43
 10
       12.00001
 20
       12.00001
 30
        4.00000
 11
       12.00001
 21
       12.00001
 31
        0.00000
 12
       25.41659
 22
       12.00001
 32
        0.00000
 13
       25.41659
 23
       12.00001
 33
        4.00000
999
BOT_PARKING:BOT_PARKING_SURFACE_INSIDE_N
  0
3DFACE
  8
BOT_PARKING
 62
 43
 10
       25.41659
 20
       25.41659
 30
        4.00000
 11
       25.41659
 21
       25.41659
 31
        0.00000
 12
       12.00001
 22
       25.41659
 32
        0.00000
 13
       12.00001
 23
       25.41659
 33
        4.00000
999
BOT_PARKING:BOT_PARKING_SURFACE_INSIDE_E
  0
3DFACE
  8
BOT_PARKING
 62
 43
 10
       25.41659
 20
       12.00001
 30
        4.00000
 11
       25.41659
 21
       12.00001
 31
        0.00000
 12
       25.41659
 22
       25.41659
 32
        0.00000
 13
       25.41659
 23
       25.41659
 33
        4.00000
999
BOT_PARKING:BOT_PARKING_SURFACE_INSIDE_W
  0
3DFACE
  8
BOT_PARKING
 62
 43
 10
       12.00001
 20
       25.41659
 30
        4.00000
 11
       12.00001
 21
       25.41659
 31
        0.00000
 12
       12.00001
 22
       12.00001
 32
        0.00000
 13
       12.00001
 23
       12.00001
 33
        4.00000
999
BOT_PARKING:iz-BOT_PARKING_SURFACE_INSIDE_B_S
  0
3DFACE
  8
BOT_PARKING
 62
 43
 10
       25.41659
 20
       12.00001
 30
        4.00000
 11
       25.41659
 21
       12.00001
 31
        0.00000
 12
       12.00001
 22
       12.00001
 32
        0.00000
 13
       12.00001
 23
       12.00001
 33
        4.00000
999
BOT_PARKING:iz-BOT_PARKING_SURFACE_INSIDE_B_N
  0
3DFACE
  8
BOT_PARKING
 62
 43
 10
       12.00001
 20
       25.41659
 30
        4.00000
 11
       12.00001
 21
       25.41659
 31
        0.00000
 12
       25.41659
 22
       25.41659
 32
        0.00000
 13
       25.41659
 23
       25.41659
 33
        4.00000
999
BOT_PARKING:iz-BOT_PARKING_SURFACE_INSIDE_B_E
  0
3DFACE
  8
BOT_PARKING
 62
 43
 10
       25.41659
 20
       25.41659
 30
        4.00000
 11
       25.41659
 21
       25.41659
 31
        0.00000
 12
       25.41659
 22
       12.00001
 32
        0.00000
 13
       25.41659
 23
       12.00001
 33
        4.00000
999
BOT_PARKING:iz-BOT_PARKING_SURFACE_INSIDE_B_W
  0
3DFACE
  8
BOT_PARKING
 62
 43
 10
       12.00001
 20
       12.00001
 30
        4.00000
 11
       12.00001
 21
       12.00001
 31
        0.00000
 12
       12.00001
 22
       25.41659
 32
        0.00000
 13
       12.00001
 23
       25.41659
 33
        4.00000
999
BOT_PARKING:BOT_PARKING_SURFACE_FLOOR_1
  0
3DFACE
  8
BOT_PARKING
 62
  8
 10
        0.00000
 20
        0.00000
 30
        0.00000
 11
        0.00000
 21
       37.41660
 31
        0.00000
 12
       12.00001
 22
       37.41660
 32
        0.00000
 13
       12.00001
 23
        0.00000
 33
        0.00000
999
BOT_PARKING:BOT_PARKING_SURFACE_FLOOR_2
  0
3DFACE
  8
BOT_PARKING
 62
  8
 10
       25.41659
 20
        0.00000
 30
        0.00000
 11
       25.41659
 21
       37.41660
 31
        0.00000
 12
       37.41660
 22
       37.41660
 32
        0.00000
 13
       37.41660
 23
        0.00000
 33
        0.00000
999
BOT_PARKING:BOT_PARKING_SURFACE_FLOOR_3
  0
3DFACE
  8
BOT_PARKING
 62
  8
 10
       12.00001
 20
       25.41659
 30
        0.00000
 11
       12.00001
 21
       37.41660
 31
        0.00000
 12
       25.41659
 22
       37.41660
 32
        0.00000
 13
       25.41659
 23
       25.41659
 33
        0.00000
999
BOT_PARKING:BOT_PARKING_SURFACE_FLOOR_4
  0
3DFACE
  8
BOT_PARKING
 62
  8
 10
       12.00001
 20
        0.00000
 30
        0.00000
 11
       12.00001
 21
       12.00001
 31
        0.00000
 12
       25.41659
 22
       12.00001
 32
        0.00000
 13
       25.41659
 23
        0.00000
 33
        0.00000
999
BOT_PARKING:BOT_PARKING_SURFACE_CEILING_1
  0
3DFACE
  8
BOT_PARKING
 62
 15
 10
        0.00000
 20
       37.41660
 30
        4.00000
 11
        0.00000
 21
        0.00000
 31
        4.00000
 12
       12.00001
 22
        0.00000
 32
        4.00000
 13
       12.00001
 23
       37.41660
 33
        4.00000
999
BOT_PARKING:BOT_PARKING_SURFACE_CEILING_2
  0
3DFACE
  8
BOT_PARKING
 62
 15
 10
       25.41659
 20
       37.41660
 30
        4.00000
 11
       25.41659
 21
        0.00000
 31
        4.00000
 12
       37.41660
 22
        0.00000
 32
        4.00000
 13
       37.41660
 23
       37.41660
 33
        4.00000
999
BOT_PARKING:BOT_PARKING_SURFACE_CEILING_3
  0
3DFACE
  8
BOT_PARKING
 62
 15
 10
       12.00001
 20
       12.00001
 30
        4.00000
 11
       12.00001
 21
        0.00000
 31
        4.00000
 12
       25.41659
 22
        0.00000
 32
        4.00000
 13
       25.41659
 23
       12.00001
 33
        4.00000
999
BOT_PARKING:BOT_PARKING_SURFACE_CEILING_4
  0
3DFACE
  8
BOT_PARKING
 62
 15
 10
       12.00001
 20
       37.41660
 30
        4.00000
 11
       12.00001
 21
       25.41659
 31
        4.00000
 12
       25.41659
 22
       25.41659
 32
        4.00000
 13
       25.41659
 23
       37.41660
 33
        4.00000
999
BOT_PARKING:iz-MID_PARKING_SURFACE_FLOOR_1
  0
3DFACE
  8
BOT_PARKING
 62
 15
 10
       12.00001
 20
        0.00000
 30
        4.00000
 11
       12.00001
 21
       37.41660
 31
        4.00000
 12
        0.00000
 22
       37.41660
 32
        4.00000
 13
        0.00000
 23
        0.00000
 33
        4.00000
999
BOT_PARKING:iz-MID_PARKING_SURFACE_FLOOR_2
  0
3DFACE
  8
BOT_PARKING
 62
 15
 10
       37.41660
 20
        0.00000
 30
        4.00000
 11
       37.41660
 21
       37.41660
 31
        4.00000
 12
       25.41659
 22
       37.41660
 32
        4.00000
 13
       25.41659
 23
        0.00000
 33
        4.00000
999
BOT_PARKING:iz-MID_PARKING_SURFACE_FLOOR_3
  0
3DFACE
  8
BOT_PARKING
 62
 15
 10
       25.41659
 20
       25.41659
 30
        4.00000
 11
       25.41659
 21
       37.41660
 31
        4.00000
 12
       12.00001
 22
       37.41660
 32
        4.00000
 13
       12.00001
 23
       25.41659
 33
        4.00000
999
BOT_PARKING:iz-MID_PARKING_SURFACE_FLOOR_4
  0
3DFACE
  8
BOT_PARKING
 62
 15
 10
       25.41659
 20
        0.00000
 30
        4.00000
 11
       25.41659
 21
       12.00001
 31
        4.00000
 12
       12.00001
 22
       12.00001
 32
        4.00000
 13
       12.00001
 23
        0.00000
 33
        4.00000
999
BOT_PARKING:iz-MID_PARKING_SURFACE_INSIDE_B_FLOOR
  0
3DFACE
  8
BOT_PARKING
 62
 15
 10
       25.41659
 20
       12.00001
 30
        4.00000
 11
       25.41659
 21
       25.41659
 31
        4.00000
 12
       12.00001
 22
       25.41659
 32
        4.00000
 13
       12.00001
 23
       12.00001
 33
        4.00000
999
BOT_PARKING_CORE:BOT_PARKING_SURFACE_INSIDE_B_S
  0
3DFACE
  8
BOT_PARKING_CORE
 62
 43
 10
       12.00001
 20
       12.00001
 30
        4.00000
 11
       12.00001
 21
       12.00001
 31
        0.00000
 12
       25.41659
 22
       12.00001
 32
        0.00000
 13
       25.41659
 23
       12.00001
 33
        4.00000
999
BOT_PARKING_CORE:BOT_PARKING_SURFACE_INSIDE_B_N
  0
3DFACE
  8
BOT_PARKING_CORE
 62
 43
 10
       25.41659
 20
       25.41659
 30
        4.00000
 11
       25.41659
 21
       25.41659
 31
        0.00000
 12
       12.00001
 22
       25.41659
 32
        0.00000
 13
       12.00001
 23
       25.41659
 33
        4.00000
999
BOT_PARKING_CORE:BOT_PARKING_SURFACE_INSIDE_B_E
  0
3DFACE
  8
BOT_PARKING_CORE
 62
 43
 10
       25.41659
 20
       12.00001
 30
        4.00000
 11
       25.41659
 21
       12.00001
 31
        0.00000
 12
       25.41659
 22
       25.41659
 32
        0.00000
 13
       25.41659
 23
       25.41659
 33
        4.00000
999
BOT_PARKING_CORE:BOT_PARKING_SURFACE_INSIDE_B_W
  0
3DFACE
  8
BOT_PARKING_CORE
 62
 43
 10
       12.00001
 20
       25.41659
 30
        4.00000
 11
       12.00001
 21
       25.41659
 31
        0.00000
 12
       12.00001
 22
       12.00001
 32
        0.00000
 13
       12.00001
 23
       12.00001
 33
        4.00000
999
BOT_PARKING_CORE:iz-BOT_PARKING_SURFACE_INSIDE_S
  0
3DFACE
  8
BOT_PARKING_CORE
 62
 43
 10
       25.41659
 20
       12.00001
 30
        4.00000
 11
       25.41659
 21
       12.00001
 31
        0.00000
 12
       12.00001
 22
       12.00001
 32
        0.00000
 13
       12.00001
 23
       12.00001
 33
        4.00000
999
BOT_PARKING_CORE:iz-BOT_PARKING_SURFACE_INSIDE_N
  0
3DFACE
  8
BOT_PARKING_CORE
 62
 43
 10
       12.00001
 20
       25.41659
 30
        4.00000
 11
       12.00001
 21
       25.41659
 31
        0.00000
 12
       25.41659
 22
       25.41659
 32
        0.00000
 13
       25.41659
 23
       25.41659
 33
        4.00000
999
BOT_PARKING_CORE:iz-BOT_PARKING_SURFACE_INSIDE_E
  0
3DFACE
  8
BOT_PARKING_CORE
 62
 43
 10
       25.41659
 20
       25.41659
 30
        4.00000
 11
       25.41659
 21
       25.41659
 31
        0.00000
 12
       25.41659
 22
       12.00001
 32
        0.00000
 13
       25.41659
 23
       12.00001
 33
        4.00000
999
BOT_PARKING_CORE:iz-BOT_PARKING_SURFACE_INSIDE_W
  0
3DFACE
  8
BOT_PARKING_CORE
 62
 43
 10
       12.00001
 20
       12.00001
 30
        4.00000
 11
       12.00001
 21
       12.00001
 31
        0.00000
 12
       12.00001
 22
       25.41659
 32
        0.00000
 13
       12.00001
 23
       25.41659
 33
        4.00000
999
BOT_PARKING_CORE:BOT_PARKING_SURFACE_INSIDE_B_FLOOR
  0
3DFACE
  8
BOT_PARKING_CORE
 62
  8
 10
       12.00001
 20
       12.00001
 30
        0.00000
 11
       12.00001
 21
       25.41659
 31
        0.00000
 12
       25.41659
 22
       25.41659
 32
        0.00000
 13
       25.41659
 23
       12.00001
 33
        0.00000
999
BOT_PARKING_CORE:BOT_PARKING_SURFACE_INSIDE_B_CEILING
  0
3DFACE
  8
BOT_PARKING_CORE
 62
 15
 10
       12.00001
 20
       25.41659
 30
        4.00000
 11
       12.00001
 21
       12.00001
 31
        4.00000
 12
       25.41659
 22
       12.00001
 32
        4.00000
 13
       25.41659
 23
       25.41659
 33
        4.00000
999
MID_PARKING:MID_PARKING_SURFACE_S
  0
3DFACE
  8
MID_PARKING
 62
 43
 10
        0.00000
 20
        0.00000
 30
        8.00000
 11
        0.00000
 21
        0.00000
 31
        4.00000
 12
       37.41660
 22
        0.00000
 32
        4.00000
 13
       37.41660
 23
        0.00000
 33
        8.00000
999
MID_PARKING:MID_PARKING_SURFACE_N
  0
3DFACE
  8
MID_PARKING
 62
 43
 10
       37.41660
 20
       37.41660
 30
        8.00000
 11
       37.41660
 21
       37.41660
 31
        4.00000
 12
        0.00000
 22
       37.41660
 32
        4.00000
 13
        0.00000
 23
       37.41660
 33
        8.00000
999
MID_PARKING:MID_PARKING_SURFACE_E
  0
3DFACE
  8
MID_PARKING
 62
 43
 10
       37.41660
 20
        0.00000
 30
        8.00000
 11
       37.41660
 21
        0.00000
 31
        4.00000
 12
       37.41660
 22
       37.41660
 32
        4.00000
 13
       37.41660
 23
       37.41660
 33
        8.00000
999
MID_PARKING:MID_PARKING_SURFACE_W
  0
3DFACE
  8
MID_PARKING
 62
 43
 10
        0.00000
 20
       37.41660
 30
        8.00000
 11
        0.00000
 21
       37.41660
 31
        4.00000
 12
        0.00000
 22
        0.00000
 32
        4.00000
 13
        0.00000
 23
        0.00000
 33
        8.00000
999
MID_PARKING:MID_PARKING_SURFACE_INSIDE_S
  0
3DFACE
  8
MID_PARKING
 62
 43
 10
       12.00001
 20
       12.00001
 30
        8.00000
 11
       12.00001
 21
       12.00001
 31
        4.00000
 12
       25.41659
 22
       12.00001
 32
        4.00000
 13
       25.41659
 23
       12.00001
 33
        8.00000
999
MID_PARKING:MID_PARKING_SURFACE_INSIDE_N
  0
3DFACE
  8
MID_PARKING
 62
 43
 10
       25.41659
 20
       25.41659
 30
        8.00000
 11
       25.41659
 21
       25.41659
 31
        4.00000
 12
       12.00001
 22
       25.41659
 32
        4.00000
 13
       12.00001
 23
       25.41659
 33
        8.00000
999
MID_PARKING:MID_PARKING_SURFACE_INSIDE_E
  0
3DFACE
  8
MID_PARKING
 62
 43
 10
       25.41659
 20
       12.00001
 30
        8.00000
 11
       25.41659
 21
       12.00001
 31
        4.00000
 12
       25.41659
 22
       25.41659
 32
        4.00000
 13
       25.41659
 23
       25.41659
 33
        8.00000
999
MID_PARKING:MID_PARKING_SURFACE_INSIDE_W
  0
3DFACE
  8
MID_PARKING
 62
 43
 10
       12.00001
 20
       25.41659
 30
        8.00000
 11
       12.00001
 21
       25.41659
 31
        4.00000
 12
       12.00001
 22
       12.00001
 32
        4.00000
 13
       12.00001
 23
       12.00001
 33
        8.00000
999
MID_PARKING:iz-MID_PARKING_SURFACE_INSIDE_B_S
  0
3DFACE
  8
MID_PARKING
 62
 43
 10
       25.41659
 20
       12.00001
 30
        8.00000
 11
       25.41659
 21
       12.00001
 31
        4.00000
 12
       12.00001
 22
       12.00001
 32
        4.00000
 13
       12.00001
 23
       12.00001
 33
        8.00000
999
MID_PARKING:iz-MID_PARKING_SURFACE_INSIDE_B_N
  0
3DFACE
  8
MID_PARKING
 62
 43
 10
       12.00001
 20
       25.41659
 30
        8.00000
 11
       12.00001
 21
       25.41659
 31
        4.00000
 12
       25.41659
 22
       25.41659
 32
        4.00000
 13
       25.41659
 23
       25.41659
 33
        8.00000
999
MID_PARKING:iz-MID_PARKING_SURFACE_INSIDE_B_E
  0
3DFACE
  8
MID_PARKING
 62
 43
 10
       25.41659
 20
       25.41659
 30
        8.00000
 11
       25.41659
 21
       25.41659
 31
        4.00000
 12
       25.41659
 22
       12.00001
 32
        4.00000
 13
       25.41659
 23
       12.00001
 33
        8.00000
999
MID_PARKING:iz-MID_PARKING_SURFACE_INSIDE_B_W
  0
3DFACE
  8
MID_PARKING
 62
 43
 10
       12.00001
 20
       12.00001
 30
        8.00000
 11
       12.00001
 21
       12.00001
 31
        4.00000
 12
       12.00001
 22
       25.41659
 32
        4.00000
 13
       12.00001
 23
       25.41659
 33
        8.00000
999
MID_PARKING:MID_PARKING_SURFACE_FLOOR_1
  0
3DFACE
  8
MID_PARKING
 62
  8
 10
        0.00000
 20
        0.00000
 30
        4.00000
 11
        0.00000
 21
       37.41660
 31
        4.00000
 12
       12.00001
 22
       37.41660
 32
        4.00000
 13
       12.00001
 23
        0.00000
 33
        4.00000
999
MID_PARKING:MID_PARKING_SURFACE_FLOOR_2
  0
3DFACE
  8
MID_PARKING
 62
  8
 10
       25.41659
 20
        0.00000
 30
        4.00000
 11
       25.41659
 21
       37.41660
 31
        4.00000
 12
       37.41660
 22
       37.41660
 32
        4.00000
 13
       37.41660
 23
        0.00000
 33
        4.00000
999
MID_PARKING:MID_PARKING_SURFACE_FLOOR_3
  0
3DFACE
  8
MID_PARKING
 62
  8
 10
       12.00001
 20
       25.41659
 30
        4.00000
 11
       12.00001
 21
       37.41660
 31
        4.00000
 12
       25.41659
 22
       37.41660
 32
        4.00000
 13
       25.41659
 23
       25.41659
 33
        4.00000
999
MID_PARKING:MID_PARKING_SURFACE_FLOOR_4
  0
3DFACE
  8
MID_PARKING
 62
  8
 10
       12.00001
 20
        0.00000
 30
        4.00000
 11
       12.00001
 21
       12.00001
 31
        4.00000
 12
       25.41659
 22
       12.00001
 32
        4.00000
 13
       25.41659
 23
        0.00000
 33
        4.00000
999
MID_PARKING:iz-BOT_PARKING_SURFACE_CEILING_1
  0
3DFACE
  8
MID_PARKING
 62
  8
 10
       12.00001
 20
       37.41660
 30
        4.00000
 11
       12.00001
 21
        0.00000
 31
        4.00000
 12
        0.00000
 22
        0.00000
 32
        4.00000
 13
        0.00000
 23
       37.41660
 33
        4.00000
999
MID_PARKING:iz-BOT_PARKING_SURFACE_CEILING_2
  0
3DFACE
  8
MID_PARKING
 62
  8
 10
       37.41660
 20
       37.41660
 30
        4.00000
 11
       37.41660
 21
        0.00000
 31
        4.00000
 12
       25.41659
 22
        0.00000
 32
        4.00000
 13
       25.41659
 23
       37.41660
 33
        4.00000
999
MID_PARKING:iz-BOT_PARKING_SURFACE_CEILING_3
  0
3DFACE
  8
MID_PARKING
 62
  8
 10
       25.41659
 20
       12.00001
 30
        4.00000
 11
       25.41659
 21
        0.00000
 31
        4.00000
 12
       12.00001
 22
        0.00000
 32
        4.00000
 13
       12.00001
 23
       12.00001
 33
        4.00000
999
MID_PARKING:iz-BOT_PARKING_SURFACE_CEILING_4
  0
3DFACE
  8
MID_PARKING
 62
  8
 10
       25.41659
 20
       37.41660
 30
        4.00000
 11
       25.41659
 21
       25.41659
 31
        4.00000
 12
       12.00001
 22
       25.41659
 32
        4.00000
 13
       12.00001
 23
       37.41660
 33
        4.00000
999
MID_PARKING:iz-BOT_PARKING_SURFACE_INSIDE_B_CEILING
  0
3DFACE
  8
MID_PARKING
 62
  8
 10
       25.41659
 20
       25.41659
 30
        4.00000
 11
       25.41659
 21
       12.00001
 31
        4.00000
 12
       12.00001
 22
       12.00001
 32
        4.00000
 13
       12.00001
 23
       25.41659
 33
        4.00000
999
MID_PARKING:MID_PARKING_SURFACE_CEILING_1
  0
3DFACE
  8
MID_PARKING
 62
 15
 10
        0.00000
 20
       37.41660
 30
        8.00000
 11
        0.00000
 21
        0.00000
 31
        8.00000
 12
       12.00001
 22
        0.00000
 32
        8.00000
 13
       12.00001
 23
       37.41660
 33
        8.00000
999
MID_PARKING:MID_PARKING_SURFACE_CEILING_2
  0
3DFACE
  8
MID_PARKING
 62
 15
 10
       25.41659
 20
       37.41660
 30
        8.00000
 11
       25.41659
 21
        0.00000
 31
        8.00000
 12
       37.41660
 22
        0.00000
 32
        8.00000
 13
       37.41660
 23
       37.41660
 33
        8.00000
999
MID_PARKING:MID_PARKING_SURFACE_CEILING_3
  0
3DFACE
  8
MID_PARKING
 62
 15
 10
       12.00001
 20
       12.00001
 30
        8.00000
 11
       12.00001
 21
        0.00000
 31
        8.00000
 12
       25.41659
 22
        0.00000
 32
        8.00000
 13
       25.41659
 23
       12.00001
 33
        8.00000
999
MID_PARKING:MID_PARKING_SURFACE_CEILING_4
  0
3DFACE
  8
MID_PARKING
 62
 15
 10
       12.00001
 20
       37.41660
 30
        8.00000
 11
       12.00001
 21
       25.41659
 31
        8.00000
 12
       25.41659
 22
       25.41659
 32
        8.00000
 13
       25.41659
 23
       37.41660
 33
        8.00000
999
MID_PARKING:iz-TOP_PARKING_SURFACE_FLOOR_1
  0
3DFACE
  8
MID_PARKING
 62
 15
 10
       12.00001
 20
        0.00000
 30
        8.00000
 11
       12.00001
 21
       37.41660
 31
        8.00000
 12
        0.00000
 22
       37.41660
 32
        8.00000
 13
        0.00000
 23
        0.00000
 33
        8.00000
999
MID_PARKING:iz-TOP_PARKING_SURFACE_FLOOR_2
  0
3DFACE
  8
MID_PARKING
 62
 15
 10
       37.41660
 20
        0.00000
 30
        8.00000
 11
       37.41660
 21
       37.41660
 31
        8.00000
 12
       25.41659
 22
       37.41660
 32
        8.00000
 13
       25.41659
 23
        0.00000
 33
        8.00000
999
MID_PARKING:iz-TOP_PARKING_SURFACE_FLOOR_3
  0
3DFACE
  8
MID_PARKING
 62
 15
 10
       25.41659
 20
       25.41659
 30
        8.00000
 11
       25.41659
 21
       37.41660
 31
        8.00000
 12
       12.00001
 22
       37.41660
 32
        8.00000
 13
       12.00001
 23
       25.41659
 33
        8.00000
999
MID_PARKING:iz-TOP_PARKING_SURFACE_FLOOR_4
  0
3DFACE
  8
MID_PARKING
 62
 15
 10
       25.41659
 20
        0.00000
 30
        8.00000
 11
       25.41659
 21
       12.00001
 31
        8.00000
 12
       12.00001
 22
       12.00001
 32
        8.00000
 13
       12.00001
 23
        0.00000
 33
        8.00000
999
MID_PARKING:iz-TOP_PARKING_SURFACE_INSIDE_B_FLOOR
  0
3DFACE
  8
MID_PARKING
 62
 15
 10
       25.41659
 20
       12.00001
 30
        8.00000
 11
       25.41659
 21
       25.41659
 31
        8.00000
 12
       12.00001
 22
       25.41659
 32
        8.00000
 13
       12.00001
 23
       12.00001
 33
        8.00000
999
MID_PARKING_CORE:MID_PARKING_SURFACE_INSIDE_B_S
  0
3DFACE
  8
MID_PARKING_CORE
 62
 43
 10
       12.00001
 20
       12.00001
 30
        8.00000
 11
       12.00001
 21
       12.00001
 31
        4.00000
 12
       25.41659
 22
       12.00001
 32
        4.00000
 13
       25.41659
 23
       12.00001
 33
        8.00000
999
MID_PARKING_CORE:MID_PARKING_SURFACE_INSIDE_B_N
  0
3DFACE
  8
MID_PARKING_CORE
 62
 43
 10
       25.41659
 20
       25.41659
 30
        8.00000
 11
       25.41659
 21
       25.41659
 31
        4.00000
 12
       12.00001
 22
       25.41659
 32
        4.00000
 13
       12.00001
 23
       25.41659
 33
        8.00000
999
MID_PARKING_CORE:MID_PARKING_SURFACE_INSIDE_B_E
  0
3DFACE
  8
MID_PARKING_CORE
 62
 43
 10
       25.41659
 20
       12.00001
 30
        8.00000
 11
       25.41659
 21
       12.00001
 31
        4.00000
 12
       25.41659
 22
       25.41659
 32
        4.00000
 13
       25.41659
 23
       25.41659
 33
        8.00000
999
MID_PARKING_CORE:MID_PARKING_SURFACE_INSIDE_B_W
  0
3DFACE
  8
MID_PARKING_CORE
 62
 43
 10
       12.00001
 20
       25.41659
 30
        8.00000
 11
       12.00001
 21
       25.41659
 31
        4.00000
 12
       12.00001
 22
       12.00001
 32
        4.00000
 13
       12.00001
 23
       12.00001
 33
        8.00000
999
MID_PARKING_CORE:iz-MID_PARKING_SURFACE_INSIDE_S
  0
3DFACE
  8
MID_PARKING_CORE
 62
 43
 10
       25.41659
 20
       12.00001
 30
        8.00000
 11
       25.41659
 21
       12.00001
 31
        4.00000
 12
       12.00001
 22
       12.00001
 32
        4.00000
 13
       12.00001
 23
       12.00001
 33
        8.00000
999
MID_PARKING_CORE:iz-MID_PARKING_SURFACE_INSIDE_N
  0
3DFACE
  8
MID_PARKING_CORE
 62
 43
 10
       12.00001
 20
       25.41659
 30
        8.00000
 11
       12.00001
 21
       25.41659
 31
        4.00000
 12
       25.41659
 22
       25.41659
 32
        4.00000
 13
       25.41659
 23
       25.41659
 33
        8.00000
999
MID_PARKING_CORE:iz-MID_PARKING_SURFACE_INSIDE_E
  0
3DFACE
  8
MID_PARKING_CORE
 62
 43
 10
       25.41659
 20
       25.41659
 30
        8.00000
 11
       25.41659
 21
       25.41659
 31
        4.00000
 12
       25.41659
 22
       12.00001
 32
        4.00000
 13
       25.41659
 23
       12.00001
 33
        8.00000
999
MID_PARKING_CORE:iz-MID_PARKING_SURFACE_INSIDE_W
  0
3DFACE
  8
MID_PARKING_CORE
 62
 43
 10
       12.00001
 20
       12.00001
 30
        8.00000
 11
       12.00001
 21
       12.00001
 31
        4.00000
 12
       12.00001
 22
       25.41659
 32
        4.00000
 13
       12.00001
 23
       25.41659
 33
        8.00000
999
MID_PARKING_CORE:MID_PARKING_SURFACE_INSIDE_B_FLOOR
  0
3DFACE
  8
MID_PARKING_CORE
 62
  8
 10
       12.00001
 20
       12.00001
 30
        4.00000
 11
       12.00001
 21
       25.41659
 31
        4.00000
 12
       25.41659
 22
       25.41659
 32
        4.00000
 13
       25.41659
 23
       12.00001
 33
        4.00000
999
MID_PARKING_CORE:MID_PARKING_SURFACE_INSIDE_B_CEILING
  0
3DFACE
  8
MID_PARKING_CORE
 62
 15
 10
       12.00001
 20
       25.41659
 30
        8.00000
 11
       12.00001
 21
       12.00001
 31
        8.00000
 12
       25.41659
 22
       12.00001
 32
        8.00000
 13
       25.41659
 23
       25.41659
 33
        8.00000
999
TOP_PARKING:TOP_PARKING_SURFACE_S
  0
3DFACE
  8
TOP_PARKING
 62
 43
 10
        0.00000
 20
        0.00000
 30
       12.00000
 11
        0.00000
 21
        0.00000
 31
        8.00000
 12
       37.41660
 22
        0.00000
 32
        8.00000
 13
       37.41660
 23
        0.00000
 33
       12.00000
999
TOP_PARKING:TOP_PARKING_SURFACE_N
  0
3DFACE
  8
TOP_PARKING
 62
 43
 10
       37.41660
 20
       37.41660
 30
       12.00000
 11
       37.41660
 21
       37.41660
 31
        8.00000
 12
        0.00000
 22
       37.41660
 32
        8.00000
 13
        0.00000
 23
       37.41660
 33
       12.00000
999
TOP_PARKING:TOP_PARKING_SURFACE_E
  0
3DFACE
  8
TOP_PARKING
 62
 43
 10
       37.41660
 20
        0.00000
 30
       12.00000
 11
       37.41660
 21
        0.00000
 31
        8.00000
 12
       37.41660
 22
       37.41660
 32
        8.00000
 13
       37.41660
 23
       37.41660
 33
       12.00000
999
TOP_PARKING:TOP_PARKING_SURFACE_W
  0
3DFACE
  8
TOP_PARKING
 62
 43
 10
        0.00000
 20
       37.41660
 30
       12.00000
 11
        0.00000
 21
       37.41660
 31
        8.00000
 12
        0.00000
 22
        0.00000
 32
        8.00000
 13
        0.00000
 23
        0.00000
 33
       12.00000
999
TOP_PARKING:TOP_PARKING_SURFACE_INSIDE_S
  0
3DFACE
  8
TOP_PARKING
 62
 43
 10
       12.00001
 20
       12.00001
 30
       12.00000
 11
       12.00001
 21
       12.00001
 31
        8.00000
 12
       25.41659
 22
       12.00001
 32
        8.00000
 13
       25.41659
 23
       12.00001
 33
       12.00000
999
TOP_PARKING:TOP_PARKING_SURFACE_INSIDE_N
  0
3DFACE
  8
TOP_PARKING
 62
 43
 10
       25.41659
 20
       25.41659
 30
       12.00000
 11
       25.41659
 21
       25.41659
 31
        8.00000
 12
       12.00001
 22
       25.41659
 32
        8.00000
 13
       12.00001
 23
       25.41659
 33
       12.00000
999
TOP_PARKING:TOP_PARKING_SURFACE_INSIDE_E
  0
3DFACE
  8
TOP_PARKING
 62
 43
 10
       25.41659
 20
       12.00001
 30
       12.00000
 11
       25.41659
 21
       12.00001
 31
        8.00000
 12
       25.41659
 22
       25.41659
 32
        8.00000
 13
       25.41659
 23
       25.41659
 33
       12.00000
999
TOP_PARKING:TOP_PARKING_SURFACE_INSIDE_W
  0
3DFACE
  8
TOP_PARKING
 62
 43
 10
       12.00001
 20
       25.41659
 30
       12.00000
 11
       12.00001
 21
       25.41659
 31
        8.00000
 12
       12.00001
 22
       12.00001
 32
        8.00000
 13
       12.00001
 23
       12.00001
 33
       12.00000
999
TOP_PARKING:iz-TOP_PARKING_SURFACE_INSIDE_B_S
  0
3DFACE
  8
TOP_PARKING
 62
 43
 10
       25.41659
 20
       12.00001
 30
       12.00000
 11
       25.41659
 21
       12.00001
 31
        8.00000
 12
       12.00001
 22
       12.00001
 32
        8.00000
 13
       12.00001
 23
       12.00001
 33
       12.00000
999
TOP_PARKING:iz-TOP_PARKING_SURFACE_INSIDE_B_N
  0
3DFACE
  8
TOP_PARKING
 62
 43
 10
       12.00001
 20
       25.41659
 30
       12.00000
 11
       12.00001
 21
       25.41659
 31
        8.00000
 12
       25.41659
 22
       25.41659
 32
        8.00000
 13
       25.41659
 23
       25.41659
 33
       12.00000
999
TOP_PARKING:iz-TOP_PARKING_SURFACE_INSIDE_B_E
  0
3DFACE
  8
TOP_PARKING
 62
 43
 10
       25.41659
 20
       25.41659
 30
       12.00000
 11
       25.41659
 21
       25.41659
 31
        8.00000
 12
       25.41659
 22
       12.00001
 32
        8.00000
 13
       25.41659
 23
       12.00001
 33
       12.00000
999
TOP_PARKING:iz-TOP_PARKING_SURFACE_INSIDE_B_W
  0
3DFACE
  8
TOP_PARKING
 62
 43
 10
       12.00001
 20
       12.00001
 30
       12.00000
 11
       12.00001
 21
       12.00001
 31
        8.00000
 12
       12.00001
 22
       25.41659
 32
        8.00000
 13
       12.00001
 23
       25.41659
 33
       12.00000
999
TOP_PARKING:TOP_PARKING_SURFACE_FLOOR_1
  0
3DFACE
  8
TOP_PARKING
 62
  8
 10
        0.00000
 20
        0.00000
 30
        8.00000
 11
        0.00000
 21
       37.41660
 31
        8.00000
 12
       12.00001
 22
       37.41660
 32
        8.00000
 13
       12.00001
 23
        0.00000
 33
        8.00000
999
TOP_PARKING:TOP_PARKING_SURFACE_FLOOR_2
  0
3DFACE
  8
TOP_PARKING
 62
  8
 10
       25.41659
 20
        0.00000
 30
        8.00000
 11
       25.41659
 21
       37.41660
 31
        8.00000
 12
       37.41660
 22
       37.41660
 32
        8.00000
 13
       37.41660
 23
        0.00000
 33
        8.00000
999
TOP_PARKING:TOP_PARKING_SURFACE_FLOOR_3
  0
3DFACE
  8
TOP_PARKING
 62
  8
 10
       12.00001
 20
       25.41659
 30
        8.00000
 11
       12.00001
 21
       37.41660
 31
        8.00000
 12
       25.41659
 22
       37.41660
 32
        8.00000
 13
       25.41659
 23
       25.41659
 33
        8.00000
999
TOP_PARKING:TOP_PARKING_SURFACE_FLOOR_4
  0
3DFACE
  8
TOP_PARKING
 62
  8
 10
       12.00001
 20
        0.00000
 30
        8.00000
 11
       12.00001
 21
       12.00001
 31
        8.00000
 12
       25.41659
 22
       12.00001
 32
        8.00000
 13
       25.41659
 23
        0.00000
 33
        8.00000
999
TOP_PARKING:iz-MID_PARKING_SURFACE_CEILING_1
  0
3DFACE
  8
TOP_PARKING
 62
  8
 10
       12.00001
 20
       37.41660
 30
        8.00000
 11
       12.00001
 21
        0.00000
 31
        8.00000
 12
        0.00000
 22
        0.00000
 32
        8.00000
 13
        0.00000
 23
       37.41660
 33
        8.00000
999
TOP_PARKING:iz-MID_PARKING_SURFACE_CEILING_2
  0
3DFACE
  8
TOP_PARKING
 62
  8
 10
       37.41660
 20
       37.41660
 30
        8.00000
 11
       37.41660
 21
        0.00000
 31
        8.00000
 12
       25.41659
 22
        0.00000
 32
        8.00000
 13
       25.41659
 23
       37.41660
 33
        8.00000
999
TOP_PARKING:iz-MID_PARKING_SURFACE_CEILING_3
  0
3DFACE
  8
TOP_PARKING
 62
  8
 10
       25.41659
 20
       12.00001
 30
        8.00000
 11
       25.41659
 21
        0.00000
 31
        8.00000
 12
       12.00001
 22
        0.00000
 32
        8.00000
 13
       12.00001
 23
       12.00001
 33
        8.00000
999
TOP_PARKING:iz-MID_PARKING_SURFACE_CEILING_4
  0
3DFACE
  8
TOP_PARKING
 62
  8
 10
       25.41659
 20
       37.41660
 30
        8.00000
 11
       25.41659
 21
       25.41659
 31
        8.00000
 12
       12.00001
 22
       25.41659
 32
        8.00000
 13
       12.00001
 23
       37.41660
 33
        8.00000
999
TOP_PARKING:iz-MID_PARKING_SURFACE_INSIDE_B_CEILING
  0
3DFACE
  8
TOP_PARKING
 62
  8
 10
       25.41659
 20
       25.41659
 30
        8.00000
 11
       25.41659
 21
       12.00001
 31
        8.00000
 12
       12.00001
 22
       12.00001
 32
        8.00000
 13
       12.00001
 23
       25.41659
 33
        8.00000
999
TOP_PARKING:iz-CEILING-CORE_BOT-AUTOCREATED
  0
3DFACE
  8
TOP_PARKING
 62
 15
 10
        8.46421
 20
       32.84350
 30
       12.00000
 11
        8.46421
 21
        4.57320
 31
       12.00000
 12
       12.00001
 22
        4.57320
 32
       12.00000
 13
       12.00001
 23
       32.84350
 33
       12.00000
999
TOP_PARKING:iz-ZONE_BOT_N_FLOOR
  0
3DFACE
  8
TOP_PARKING
 62
 15
 10
       16.07820
 20
       37.41660
 30
       12.00000
 11
       16.07820
 21
       32.84350
 31
       12.00000
 12
       32.84340
 22
       32.84350
 32
       12.00000
 13
       37.41660
 23
       37.41660
 33
       12.00000
999
TOP_PARKING:iz-ZONE_BOT_E_FLOOR
  0
3DFACE
  8
TOP_PARKING
 62
 15
 10
       32.84340
 20
       32.84350
 30
       12.00000
 11
       32.84340
 21
        4.57320
 31
       12.00000
 12
       37.41660
 22
        0.00000
 32
       12.00000
 13
       37.41660
 23
       37.41660
 33
       12.00000
999
TOP_PARKING:iz-ZONE_BOT_S-AUTOCREATED
  0
3DFACE
  8
TOP_PARKING
 62
 15
 10
        4.57320
 20
        4.57320
 30
       12.00000
 11
        0.00000
 21
        0.00000
 31
       12.00000
 12
       16.07820
 22
        0.00000
 32
       12.00000
 13
       16.07820
 23
        4.57320
 33
       12.00000
999
TOP_PARKING:iz-ZONE_BOT_W_FLOOR
  0
3DFACE
  8
TOP_PARKING
 62
 15
 10
        0.00000
 20
       37.41660
 30
       12.00000
 11
        0.00000
 21
        0.00000
 31
       12.00000
 12
        4.57320
 22
        4.57320
 32
       12.00000
 13
        4.57320
 23
       32.84350
 33
       12.00000
999
TOP_PARKING:iz-CORE_BOT_FLOOR
  0
3DFACE
  8
TOP_PARKING
 62
 15
 10
       25.41659
 20
       32.84350
 30
       12.00000
 11
       25.41659
 21
        4.57320
 31
       12.00000
 12
       32.84340
 22
        4.57320
 32
       12.00000
 13
       32.84340
 23
       32.84350
 33
       12.00000
999
TOP_PARKING:iz-ZONE_BOT_S_FLOOR
  0
3DFACE
  8
TOP_PARKING
 62
 15
 10
       16.07820
 20
        4.57320
 30
       12.00000
 11
       16.07820
 21
        0.00000
 31
       12.00000
 12
       37.41660
 22
        0.00000
 32
       12.00000
 13
       32.84340
 23
        4.57320
 33
       12.00000
999
TOP_PARKING:iz-CEILING-ZONE_BOT_N-AUTOCREATED
  0
3DFACE
  8
TOP_PARKING
 62
 15
 10
        0.00000
 20
       37.41660
 30
       12.00000
 11
        4.57320
 21
       32.84350
 31
       12.00000
 12
       16.07820
 22
       32.84350
 32
       12.00000
 13
       16.07820
 23
       37.41660
 33
       12.00000
999
TOP_PARKING:iz-BOT_TOILET_FLOOR
  0
3DFACE
  8
TOP_PARKING
 62
 15
 10
        4.57320
 20
       32.84350
 30
       12.00000
 11
        4.57320
 21
       19.99336
 31
       12.00000
 12
        8.46421
 22
       19.99336
 32
       12.00000
 13
        8.46421
 23
       32.84350
 33
       12.00000
999
TOP_PARKING:iz-BOT_STAIRS_FLOOR
  0
3DFACE
  8
TOP_PARKING
 62
 15
 10
        4.57320
 20
       19.99336
 30
       12.00000
 11
        4.57320
 21
        4.57320
 31
       12.00000
 12
        8.46421
 22
        4.57320
 32
       12.00000
 13
        8.46421
 23
       19.99336
 33
       12.00000
999
TOP_PARKING:iz-CORE_BOT_FLOOR_3
  0
3DFACE
  8
TOP_PARKING
 62
 15
 10
       12.00001
 20
       12.00001
 30
       12.00000
 11
       12.00001
 21
        4.57320
 31
       12.00000
 12
       25.41659
 22
        4.57320
 32
       12.00000
 13
       25.41659
 23
       12.00001
 33
       12.00000
999
TOP_PARKING:iz-CORE_BOT_FLOOR_4
  0
3DFACE
  8
TOP_PARKING
 62
 15
 10
       12.00001
 20
       32.84350
 30
       12.00000
 11
       12.00001
 21
       25.41659
 31
       12.00000
 12
       25.41659
 22
       25.41659
 32
       12.00000
 13
       25.41659
 23
       32.84350
 33
       12.00000
999
TOP_PARKING_CORE:TOP_PARKING_SURFACE_INSIDE_B_S
  0
3DFACE
  8
TOP_PARKING_CORE
 62
 43
 10
       12.00001
 20
       12.00001
 30
       12.00000
 11
       12.00001
 21
       12.00001
 31
        8.00000
 12
       25.41659
 22
       12.00001
 32
        8.00000
 13
       25.41659
 23
       12.00001
 33
       12.00000
999
TOP_PARKING_CORE:TOP_PARKING_SURFACE_INSIDE_B_N
  0
3DFACE
  8
TOP_PARKING_CORE
 62
 43
 10
       25.41659
 20
       25.41659
 30
       12.00000
 11
       25.41659
 21
       25.41659
 31
        8.00000
 12
       12.00001
 22
       25.41659
 32
        8.00000
 13
       12.00001
 23
       25.41659
 33
       12.00000
999
TOP_PARKING_CORE:TOP_PARKING_SURFACE_INSIDE_B_E
  0
3DFACE
  8
TOP_PARKING_CORE
 62
 43
 10
       25.41659
 20
       12.00001
 30
       12.00000
 11
       25.41659
 21
       12.00001
 31
        8.00000
 12
       25.41659
 22
       25.41659
 32
        8.00000
 13
       25.41659
 23
       25.41659
 33
       12.00000
999
TOP_PARKING_CORE:TOP_PARKING_SURFACE_INSIDE_B_W
  0
3DFACE
  8
TOP_PARKING_CORE
 62
 43
 10
       12.00001
 20
       25.41659
 30
       12.00000
 11
       12.00001
 21
       25.41659
 31
        8.00000
 12
       12.00001
 22
       12.00001
 32
        8.00000
 13
       12.00001
 23
       12.00001
 33
       12.00000
999
TOP_PARKING_CORE:iz-TOP_PARKING_SURFACE_INSIDE_S
  0
3DFACE
  8
TOP_PARKING_CORE
 62
 43
 10
       25.41659
 20
       12.00001
 30
       12.00000
 11
       25.41659
 21
       12.00001
 31
        8.00000
 12
       12.00001
 22
       12.00001
 32
        8.00000
 13
       12.00001
 23
       12.00001
 33
       12.00000
999
TOP_PARKING_CORE:iz-TOP_PARKING_SURFACE_INSIDE_N
  0
3DFACE
  8
TOP_PARKING_CORE
 62
 43
 10
       12.00001
 20
       25.41659
 30
       12.00000
 11
       12.00001
 21
       25.41659
 31
        8.00000
 12
       25.41659
 22
       25.41659
 32
        8.00000
 13
       25.41659
 23
       25.41659
 33
       12.00000
999
TOP_PARKING_CORE:iz-TOP_PARKING_SURFACE_INSIDE_E
  0
3DFACE
  8
TOP_PARKING_CORE
 62
 43
 10
       25.41659
 20
       25.41659
 30
       12.00000
 11
       25.41659
 21
       25.41659
 31
        8.00000
 12
       25.41659
 22
       12.00001
 32
        8.00000
 13
       25.41659
 23
       12.00001
 33
       12.00000
999
TOP_PARKING_CORE:iz-TOP_PARKING_SURFACE_INSIDE_W
  0
3DFACE
  8
TOP_PARKING_CORE
 62
 43
 10
       12.00001
 20
       12.00001
 30
       12.00000
 11
       12.00001
 21
       12.00001
 31
        8.00000
 12
       12.00001
 22
       25.41659
 32
        8.00000
 13
       12.00001
 23
       25.41659
 33
       12.00000
999
TOP_PARKING_CORE:TOP_PARKING_SURFACE_INSIDE_B_FLOOR
  0
3DFACE
  8
TOP_PARKING_CORE
 62
  8
 10
       12.00001
 20
       12.00001
 30
        8.00000
 11
       12.00001
 21
       25.41659
 31
        8.00000
 12
       25.41659
 22
       25.41659
 32
        8.00000
 13
       25.41659
 23
       12.00001
 33
        8.00000
999
TOP_PARKING_CORE:TOP_PARKING_SURFACE_INSIDE_B_CEILING
  0
3DFACE
  8
TOP_PARKING_CORE
 62
 15
 10
       12.00001
 20
       25.41659
 30
       12.00000
 11
       12.00001
 21
       12.00001
 31
       12.00000
 12
       25.41659
 22
       12.00001
 32
       12.00000
 13
       25.41659
 23
       25.41659
 33
       12.00000
  0
ENDSEC
  0
EOF
