<?xml version="1.0"?>
<svg width="250mm" height="200mm" viewBox="0 0   3200    1520"
     xmlns="http://www.w3.org/2000/svg"
     xmlns:xlink="http://www.w3.org/1999/xlink"
     xmlns:ev="http://www.w3.org/2001/xml-events">
<g font-family="Verdana" font-size="8" >
  <line x1="   300" y1="  1350" x2="   300" y2="  1430" style = "stroke:silver  ;"/>
  <line x1="   300" y1="  1350" x2="   300" y2="  1510" style = "stroke:silver  ;"/>
  <line x1="   300" y1="  1430" x2="   300" y2="  1510" style = "stroke:silver  ;"/>
  <line x1="   900" y1="   870" x2="  2050" y2="  1190" style = "stroke:silver  ;"/>
  <line x1="   900" y1="   910" x2="  2050" y2="  1230" style = "stroke:silver  ;"/>
  <line x1="  2400" y1="   910" x2="   600" y2="    30" style = "stroke:silver  ;"/>
  <line x1="  2400" y1="   950" x2="   650" y2="   270" style = "stroke:silver  ;"/>
  <line x1="  2400" y1="   990" x2="   600" y2="   630" style = "stroke:silver  ;"/>
  <rect x="  1700" y="    20" width="   200" height="    20" style = "fill:chartreuse; stroke: Black;"/>     1
  <text x="  1702" y="    33">CORE_BOT</text>
  <rect x="   200" y="  1340" width="   200" height="    20" style = "fill:snow; stroke: Black;"/>    22
  <text x="   202" y="  1353">OutdoorAir:NodeList</text>
  <rect x="   200" y="  1420" width="   200" height="    20" style = "fill:snow; stroke: Black;"/>    23
  <text x="   202" y="  1433">OutdoorAir:NodeList</text>
  <rect x="   200" y="  1500" width="   200" height="    20" style = "fill:snow; stroke: Black;"/>    24
  <text x="   202" y="  1513">OutdoorAir:NodeList</text>
  <rect x="  2300" y="  1020" width="   200" height="    20" style = "fill:wheat; stroke: Black;"/>    32
  <text x="  2302" y="  1033">CHW_DEMAND_EQUIPMENT_BYPASS_PIPE</text>
  <rect x="  1400" y="   900" width="   200" height="    20" style = "fill:wheat; stroke: Black;"/>    33
  <text x="  1402" y="   913">CHW_SUPPLY_OUTLET_PIPE</text>
  <rect x="  2900" y="  1020" width="   200" height="    20" style = "fill:wheat; stroke: Black;"/>    34
  <text x="  2902" y="  1033">CHW_DEMAND_OUTLET_PIPE</text>
  <rect x="   700" y="  1180" width="   200" height="    20" style = "fill:wheat; stroke: Black;"/>    35
  <text x="   702" y="  1193">CNDW_SUPPLY_EQUIPMENT_BYPASS_PIPE</text>
  <rect x="  1200" y="  1180" width="   200" height="    20" style = "fill:wheat; stroke: Black;"/>    36
  <text x="  1202" y="  1193">CNDW_SUPPLY_OUTLET_PIPE</text>
  <rect x="  1450" y="  1180" width="   200" height="    20" style = "fill:wheat; stroke: Black;"/>    37
  <text x="  1452" y="  1193">CNDW_DEMAND_INLET_PIPE</text>
  <rect x="  1950" y="  1260" width="   200" height="    20" style = "fill:wheat; stroke: Black;"/>    38
  <text x="  1952" y="  1273">CNDW_DEMAND_BYPASS_PIPE</text>
  <rect x="  2450" y="  1260" width="   200" height="    20" style = "fill:wheat; stroke: Black;"/>    39
  <text x="  2452" y="  1273">CNDW_DEMAND_OUTLET_PIPE</text>
  <rect x="  1700" y="   900" width="   200" height="    20" style = "fill:wheat; stroke: Black;"/>    40
  <text x="  1702" y="   913">CHW_DEMAND_PIPE</text>
  <rect x="  2000" y="   900" width="   200" height="    20" style = "fill:wheat; stroke: Black;"/>    41
  <text x="  2002" y="   913">CHW_DEMAND_SPLITTER</text>
  <rect x="  2600" y="  1020" width="   200" height="    20" style = "fill:wheat; stroke: Black;"/>    42
  <text x="  2602" y="  1033">CHW_DEMAND_MIXER</text>
  <rect x="   800" y="   860" width="   200" height="    20" style = "fill:powderblue; stroke: Black;"/>    43
  <text x="   802" y="   873">SGP_CHILLER_1</text>
  <rect x="  1950" y="  1180" width="   200" height="    20" style = "fill:powderblue; stroke: Black;"/>    44
  <text x="  1952" y="  1193">SGP_CHILLER_1</text>
  <rect x="   800" y="   900" width="   200" height="    20" style = "fill:powderblue; stroke: Black;"/>    45
  <text x="   802" y="   913">SGP_CHILLER_2</text>
  <rect x="  1950" y="  1220" width="   200" height="    20" style = "fill:powderblue; stroke: Black;"/>    46
  <text x="  1952" y="  1233">SGP_CHILLER_2</text>
  <rect x="   500" y="   860" width="   200" height="    20" style = "fill:wheat; stroke: Black;"/>    47
  <text x="   502" y="   873">CHW_SUPPLY_SPLITTER</text>
  <rect x="  1100" y="   900" width="   200" height="    20" style = "fill:wheat; stroke: Black;"/>    48
  <text x="  1102" y="   913">CHW_SUPPLY_MIXER</text>
  <rect x="  1700" y="  1180" width="   200" height="    20" style = "fill:wheat; stroke: Black;"/>    49
  <text x="  1702" y="  1193">CNDW_DEMAND_SPLITTER</text>
  <rect x="  2200" y="  1260" width="   200" height="    20" style = "fill:wheat; stroke: Black;"/>    50
  <text x="  2202" y="  1273">CNDW_DEMAND_MIXER</text>
  <rect x="   700" y="  1100" width="   200" height="    20" style = "fill:pink; stroke: Black;"/>    51
  <text x="   702" y="  1113">SGP_COOLTOWER_1</text>
  <rect x="   700" y="  1140" width="   200" height="    20" style = "fill:pink; stroke: Black;"/>    52
  <text x="   702" y="  1153">SGP_COOLTOWER_2</text>
  <rect x="   450" y="  1100" width="   200" height="    20" style = "fill:wheat; stroke: Black;"/>    53
  <text x="   452" y="  1113">CNDW_SUPPLY_SPLITTER</text>
  <rect x="   950" y="  1180" width="   200" height="    20" style = "fill:wheat; stroke: Black;"/>    54
  <text x="   952" y="  1193">CNDW_SUPPLY_MIXER</text>
  <rect x="  1100" y="    20" width="   200" height="    20" style = "fill:wheat; stroke: Black;"/>    55
  <text x="  1102" y="    33">VAV_BOT_SUPPLY_AIR_SPLITTER</text>
  <rect x="  1250" y="   260" width="   200" height="    20" style = "fill:wheat; stroke: Black;"/>    56
  <text x="  1252" y="   273">VAV_MID_SUPPLY_AIR_SPLITTER</text>
  <rect x="  1100" y="   620" width="   200" height="    20" style = "fill:wheat; stroke: Black;"/>    57
  <text x="  1102" y="   633">VAV_TOP_SUPPLY_AIR_SPLITTER</text>
  <rect x="  1400" y="    20" width="   200" height="    20" style = "fill:wheat; stroke: Black;"/>    58
  <text x="  1402" y="    33">CORE_BOT_VAV_BOX_COMPONENT</text>
  <rect x="  1600" y="   260" width="   200" height="    20" style = "fill:wheat; stroke: Black;"/>    59
  <text x="  1602" y="   273">CORE_MID1_VAV_BOX_COMPONENT</text>
  <rect x="  1600" y="   300" width="   200" height="    20" style = "fill:wheat; stroke: Black;"/>    60
  <text x="  1602" y="   313">CORE_MID2_VAV_BOX_COMPONENT</text>
  <rect x="  1600" y="   340" width="   200" height="    20" style = "fill:wheat; stroke: Black;"/>    61
  <text x="  1602" y="   353">CORE_MID3_VAV_BOX_COMPONENT</text>
  <rect x="  1600" y="   380" width="   200" height="    20" style = "fill:wheat; stroke: Black;"/>    62
  <text x="  1602" y="   393">CORE_MID4_VAV_BOX_COMPONENT</text>
  <rect x="  1400" y="   620" width="   200" height="    20" style = "fill:wheat; stroke: Black;"/>    63
  <text x="  1402" y="   633">CORE_TOP_VAV_BOX_COMPONENT</text>
  <rect x="  1400" y="    60" width="   200" height="    20" style = "fill:wheat; stroke: Black;"/>    64
  <text x="  1402" y="    73">ZONE_BOT_N_VAV_BOX_COMPONENT</text>
  <rect x="  1400" y="   100" width="   200" height="    20" style = "fill:wheat; stroke: Black;"/>    65
  <text x="  1402" y="   113">ZONE_BOT_E_VAV_BOX_COMPONENT</text>
  <rect x="  1400" y="   140" width="   200" height="    20" style = "fill:wheat; stroke: Black;"/>    66
  <text x="  1402" y="   153">ZONE_BOT_S_VAV_BOX_COMPONENT</text>
  <rect x="  1400" y="   180" width="   200" height="    20" style = "fill:wheat; stroke: Black;"/>    67
  <text x="  1402" y="   193">ZONE_BOT_W_VAV_BOX_COMPONENT</text>
  <rect x="  1600" y="   420" width="   200" height="    20" style = "fill:wheat; stroke: Black;"/>    68
  <text x="  1602" y="   433">ZONE_MID_N_VAV_BOX_COMPONENT</text>
  <rect x="  1600" y="   460" width="   200" height="    20" style = "fill:wheat; stroke: Black;"/>    69
  <text x="  1602" y="   473">ZONE_MID_E_VAV_BOX_COMPONENT</text>
  <rect x="  1600" y="   500" width="   200" height="    20" style = "fill:wheat; stroke: Black;"/>    70
  <text x="  1602" y="   513">ZONE_MID_S_VAV_BOX_COMPONENT</text>
  <rect x="  1600" y="   540" width="   200" height="    20" style = "fill:wheat; stroke: Black;"/>    71
  <text x="  1602" y="   553">ZONE_MID_W_VAV_BOX_COMPONENT</text>
  <rect x="  1400" y="   660" width="   200" height="    20" style = "fill:wheat; stroke: Black;"/>    72
  <text x="  1402" y="   673">ZONE_TOP_N_VAV_BOX_COMPONENT</text>
  <rect x="  1400" y="   700" width="   200" height="    20" style = "fill:wheat; stroke: Black;"/>    73
  <text x="  1402" y="   713">ZONE_TOP_E_VAV_BOX_COMPONENT</text>
  <rect x="  1400" y="   740" width="   200" height="    20" style = "fill:wheat; stroke: Black;"/>    74
  <text x="  1402" y="   753">ZONE_TOP_S_VAV_BOX_COMPONENT</text>
  <rect x="  1400" y="   780" width="   200" height="    20" style = "fill:wheat; stroke: Black;"/>    75
  <text x="  1402" y="   793">ZONE_TOP_W_VAV_BOX_COMPONENT</text>
  <rect x="   800" y="    20" width="   200" height="    20" style = "fill:silver; stroke: Black;"/>    76
  <text x="   802" y="    33">VAV_BOT_FAN</text>
  <rect x="   900" y="   260" width="   200" height="    20" style = "fill:silver; stroke: Black;"/>    77
  <text x="   902" y="   273">VAV_MID_FAN</text>
  <rect x="   800" y="   620" width="   200" height="    20" style = "fill:silver; stroke: Black;"/>    78
  <text x="   802" y="   633">VAV_TOP_FAN</text>
  <rect x="  2000" y="   180" width="   200" height="    20" style = "fill:lightgreen; stroke: Black;"/>    82
  <text x="  2002" y="   193">GROUNDFLOOR_RETURN_PLENUM</text>
  <rect x="  2300" y="   540" width="   200" height="    20" style = "fill:lightgreen; stroke: Black;"/>    83
  <text x="  2302" y="   553">MIDFLOOR_RETURN_PLENUM</text>
  <rect x="  2000" y="   780" width="   200" height="    20" style = "fill:lightgreen; stroke: Black;"/>    84
  <text x="  2002" y="   793">TOPFLOOR_RETURN_PLENUM</text>
  <rect x="  2300" y="   180" width="   200" height="    20" style = "fill:wheat; stroke: Black;"/>    85
  <text x="  2302" y="   193">VAV_BOT_RETURN_AIR_MIXER</text>
  <rect x="  2650" y="   540" width="   200" height="    20" style = "fill:wheat; stroke: Black;"/>    86
  <text x="  2652" y="   553">VAV_MID_RETURN_AIR_MIXER</text>
  <rect x="  2300" y="   780" width="   200" height="    20" style = "fill:wheat; stroke: Black;"/>    87
  <text x="  2302" y="   793">VAV_TOP_RETURN_AIR_MIXER</text>
  <rect x="   200" y="    20" width="   200" height="    20" style = "fill:lawngreen; stroke: Black;"/>    88
  <text x="   202" y="    33">VAV_BOT_OAMIXING_BOX</text>
  <rect x="   200" y="   260" width="   200" height="    20" style = "fill:lawngreen; stroke: Black;"/>    89
  <text x="   202" y="   273">VAV_MID_OAMIXING_BOX</text>
  <rect x="   200" y="   620" width="   200" height="    20" style = "fill:lawngreen; stroke: Black;"/>    90
  <text x="   202" y="   633">VAV_TOP_OAMIXING_BOX</text>
  <rect x="  2300" y="   900" width="   200" height="    20" style = "fill:skyblue; stroke: Black;"/>    91
  <text x="  2302" y="   913">VAV_BOT_COIL</text>
  <rect x="   500" y="    20" width="   200" height="    20" style = "fill:skyblue; stroke: Black;"/>    92
  <text x="   502" y="    33">VAV_BOT_COIL</text>
  <rect x="  2300" y="   940" width="   200" height="    20" style = "fill:skyblue; stroke: Black;"/>    93
  <text x="  2302" y="   953">VAV_MID_COIL</text>
  <rect x="   550" y="   260" width="   200" height="    20" style = "fill:skyblue; stroke: Black;"/>    94
  <text x="   552" y="   273">VAV_MID_COIL</text>
  <rect x="  2300" y="   980" width="   200" height="    20" style = "fill:skyblue; stroke: Black;"/>    95
  <text x="  2302" y="   993">VAV_TOP_COIL</text>
  <rect x="   500" y="   620" width="   200" height="    20" style = "fill:skyblue; stroke: Black;"/>    96
  <text x="   502" y="   633">VAV_TOP_COIL</text>
  <rect x="   200" y="   860" width="   200" height="    20" style = "fill:springgreen; stroke: Black;"/>   103
  <text x="   202" y="   873">CHW_PUMP</text>
  <rect x="   200" y="  1100" width="   200" height="    20" style = "fill:springgreen; stroke: Black;"/>   104
  <text x="   202" y="  1113">CNDW_PUMP</text>
  <rect x="  1950" y="   260" width="   200" height="    20" style = "fill:chartreuse; stroke: Black;"/>   105
  <text x="  1952" y="   273">CORE_MID1</text>
  <rect x="  1950" y="   300" width="   200" height="    20" style = "fill:chartreuse; stroke: Black;"/>   106
  <text x="  1952" y="   313">CORE_MID2</text>
  <rect x="  1950" y="   340" width="   200" height="    20" style = "fill:chartreuse; stroke: Black;"/>   107
  <text x="  1952" y="   353">CORE_MID3</text>
  <rect x="  1950" y="   380" width="   200" height="    20" style = "fill:chartreuse; stroke: Black;"/>   108
  <text x="  1952" y="   393">CORE_MID4</text>
  <rect x="  1700" y="   620" width="   200" height="    20" style = "fill:chartreuse; stroke: Black;"/>   109
  <text x="  1702" y="   633">CORE_TOP</text>
  <rect x="  1700" y="    60" width="   200" height="    20" style = "fill:chartreuse; stroke: Black;"/>   110
  <text x="  1702" y="    73">ZONE_BOT_N</text>
  <rect x="  1700" y="   100" width="   200" height="    20" style = "fill:chartreuse; stroke: Black;"/>   111
  <text x="  1702" y="   113">ZONE_BOT_E</text>
  <rect x="  1700" y="   140" width="   200" height="    20" style = "fill:chartreuse; stroke: Black;"/>   112
  <text x="  1702" y="   153">ZONE_BOT_S</text>
  <rect x="  1700" y="   180" width="   200" height="    20" style = "fill:chartreuse; stroke: Black;"/>   113
  <text x="  1702" y="   193">ZONE_BOT_W</text>
  <rect x="  1950" y="   420" width="   200" height="    20" style = "fill:chartreuse; stroke: Black;"/>   114
  <text x="  1952" y="   433">ZONE_MID_N</text>
  <rect x="  1950" y="   460" width="   200" height="    20" style = "fill:chartreuse; stroke: Black;"/>   115
  <text x="  1952" y="   473">ZONE_MID_E</text>
  <rect x="  1950" y="   500" width="   200" height="    20" style = "fill:chartreuse; stroke: Black;"/>   116
  <text x="  1952" y="   513">ZONE_MID_S</text>
  <rect x="  1950" y="   540" width="   200" height="    20" style = "fill:chartreuse; stroke: Black;"/>   117
  <text x="  1952" y="   553">ZONE_MID_W</text>
  <rect x="  1700" y="   660" width="   200" height="    20" style = "fill:chartreuse; stroke: Black;"/>   118
  <text x="  1702" y="   673">ZONE_TOP_N</text>
  <rect x="  1700" y="   700" width="   200" height="    20" style = "fill:chartreuse; stroke: Black;"/>   119
  <text x="  1702" y="   713">ZONE_TOP_E</text>
  <rect x="  1700" y="   740" width="   200" height="    20" style = "fill:chartreuse; stroke: Black;"/>   120
  <text x="  1702" y="   753">ZONE_TOP_S</text>
  <rect x="  1700" y="   780" width="   200" height="    20" style = "fill:chartreuse; stroke: Black;"/>   121
  <text x="  1702" y="   793">ZONE_TOP_W</text>
  <line x1="  2500" y1="  1030" x2="  2600" y2="  1030" style = "stroke: Black;"/>
  <line x1="  1600" y1="   910" x2="  1700" y2="   910" style = "stroke: Black;"/>
  <line x1="   900" y1="  1190" x2="   950" y2="  1190" style = "stroke: Black;"/>
  <line x1="  1400" y1="  1190" x2="  1450" y2="  1190" style = "stroke: Black;"/>
  <line x1="  1650" y1="  1190" x2="  1700" y2="  1190" style = "stroke: Black;"/>
  <line x1="  2150" y1="  1270" x2="  2200" y2="  1270" style = "stroke: Black;"/>
  <line x1="  1900" y1="   910" x2="  2000" y2="   910" style = "stroke: Black;"/>
  <line x1="  2200" y1="   910" x2="  2300" y2="   910" style = "stroke: Black;"/>
  <line x1="  2200" y1="   910" x2="  2300" y2="   950" style = "stroke: Black;"/>
  <line x1="  2200" y1="   910" x2="  2300" y2="   990" style = "stroke: Black;"/>
  <line x1="  2200" y1="   910" x2="  2300" y2="  1030" style = "stroke: Black;"/>
  <line x1="  2800" y1="  1030" x2="  2900" y2="  1030" style = "stroke: Black;"/>
  <line x1="  1000" y1="   870" x2="  1100" y2="   910" style = "stroke: Black;"/>
  <line x1="  2150" y1="  1190" x2="  2200" y2="  1270" style = "stroke: Black;"/>
  <line x1="  1000" y1="   910" x2="  1100" y2="   910" style = "stroke: Black;"/>
  <line x1="  2150" y1="  1230" x2="  2200" y2="  1270" style = "stroke: Black;"/>
  <line x1="   700" y1="   870" x2="   800" y2="   870" style = "stroke: Black;"/>
  <line x1="   700" y1="   870" x2="   800" y2="   910" style = "stroke: Black;"/>
  <line x1="  1300" y1="   910" x2="  1400" y2="   910" style = "stroke: Black;"/>
  <line x1="  1900" y1="  1190" x2="  1950" y2="  1190" style = "stroke: Black;"/>
  <line x1="  1900" y1="  1190" x2="  1950" y2="  1230" style = "stroke: Black;"/>
  <line x1="  1900" y1="  1190" x2="  1950" y2="  1270" style = "stroke: Black;"/>
  <line x1="  2400" y1="  1270" x2="  2450" y2="  1270" style = "stroke: Black;"/>
  <line x1="   900" y1="  1110" x2="   950" y2="  1190" style = "stroke: Black;"/>
  <line x1="   900" y1="  1150" x2="   950" y2="  1190" style = "stroke: Black;"/>
  <line x1="   650" y1="  1110" x2="   700" y2="  1110" style = "stroke: Black;"/>
  <line x1="   650" y1="  1110" x2="   700" y2="  1150" style = "stroke: Black;"/>
  <line x1="   650" y1="  1110" x2="   700" y2="  1190" style = "stroke: Black;"/>
  <line x1="  1150" y1="  1190" x2="  1200" y2="  1190" style = "stroke: Black;"/>
  <line x1="  1300" y1="    30" x2="  1400" y2="    30" style = "stroke: Black;"/>
  <line x1="  1300" y1="    30" x2="  1400" y2="    70" style = "stroke: Black;"/>
  <line x1="  1300" y1="    30" x2="  1400" y2="   110" style = "stroke: Black;"/>
  <line x1="  1300" y1="    30" x2="  1400" y2="   150" style = "stroke: Black;"/>
  <line x1="  1300" y1="    30" x2="  1400" y2="   190" style = "stroke: Black;"/>
  <line x1="  1450" y1="   270" x2="  1600" y2="   270" style = "stroke: Black;"/>
  <line x1="  1450" y1="   270" x2="  1600" y2="   310" style = "stroke: Black;"/>
  <line x1="  1450" y1="   270" x2="  1600" y2="   350" style = "stroke: Black;"/>
  <line x1="  1450" y1="   270" x2="  1600" y2="   390" style = "stroke: Black;"/>
  <line x1="  1450" y1="   270" x2="  1600" y2="   430" style = "stroke: Black;"/>
  <line x1="  1450" y1="   270" x2="  1600" y2="   470" style = "stroke: Black;"/>
  <line x1="  1450" y1="   270" x2="  1600" y2="   510" style = "stroke: Black;"/>
  <line x1="  1450" y1="   270" x2="  1600" y2="   550" style = "stroke: Black;"/>
  <line x1="  1300" y1="   630" x2="  1400" y2="   630" style = "stroke: Black;"/>
  <line x1="  1300" y1="   630" x2="  1400" y2="   670" style = "stroke: Black;"/>
  <line x1="  1300" y1="   630" x2="  1400" y2="   710" style = "stroke: Black;"/>
  <line x1="  1300" y1="   630" x2="  1400" y2="   750" style = "stroke: Black;"/>
  <line x1="  1300" y1="   630" x2="  1400" y2="   790" style = "stroke: Black;"/>
  <line x1="  1600" y1="    30" x2="  1700" y2="    30" style = "stroke: Black;"/>
  <line x1="  1800" y1="   270" x2="  1950" y2="   270" style = "stroke: Black;"/>
  <line x1="  1800" y1="   310" x2="  1950" y2="   310" style = "stroke: Black;"/>
  <line x1="  1800" y1="   350" x2="  1950" y2="   350" style = "stroke: Black;"/>
  <line x1="  1800" y1="   390" x2="  1950" y2="   390" style = "stroke: Black;"/>
  <line x1="  1600" y1="   630" x2="  1700" y2="   630" style = "stroke: Black;"/>
  <line x1="  1600" y1="    70" x2="  1700" y2="    70" style = "stroke: Black;"/>
  <line x1="  1600" y1="   110" x2="  1700" y2="   110" style = "stroke: Black;"/>
  <line x1="  1600" y1="   150" x2="  1700" y2="   150" style = "stroke: Black;"/>
  <line x1="  1600" y1="   190" x2="  1700" y2="   190" style = "stroke: Black;"/>
  <line x1="  1800" y1="   430" x2="  1950" y2="   430" style = "stroke: Black;"/>
  <line x1="  1800" y1="   470" x2="  1950" y2="   470" style = "stroke: Black;"/>
  <line x1="  1800" y1="   510" x2="  1950" y2="   510" style = "stroke: Black;"/>
  <line x1="  1800" y1="   550" x2="  1950" y2="   550" style = "stroke: Black;"/>
  <line x1="  1600" y1="   670" x2="  1700" y2="   670" style = "stroke: Black;"/>
  <line x1="  1600" y1="   710" x2="  1700" y2="   710" style = "stroke: Black;"/>
  <line x1="  1600" y1="   750" x2="  1700" y2="   750" style = "stroke: Black;"/>
  <line x1="  1600" y1="   790" x2="  1700" y2="   790" style = "stroke: Black;"/>
  <line x1="  1000" y1="    30" x2="  1100" y2="    30" style = "stroke: Black;"/>
  <line x1="  1100" y1="   270" x2="  1250" y2="   270" style = "stroke: Black;"/>
  <line x1="  1000" y1="   630" x2="  1100" y2="   630" style = "stroke: Black;"/>
  <line x1="  2200" y1="   190" x2="  2300" y2="   190" style = "stroke: Black;"/>
  <line x1="  2500" y1="   550" x2="  2650" y2="   550" style = "stroke: Black;"/>
  <line x1="  2200" y1="   790" x2="  2300" y2="   790" style = "stroke: Black;"/>
  <line x1="   400" y1="    30" x2="   500" y2="    30" style = "stroke: Black;"/>
  <line x1="   400" y1="   270" x2="   550" y2="   270" style = "stroke: Black;"/>
  <line x1="   400" y1="   630" x2="   500" y2="   630" style = "stroke: Black;"/>
  <line x1="  2500" y1="   910" x2="  2600" y2="  1030" style = "stroke: Black;"/>
  <line x1="   700" y1="    30" x2="   800" y2="    30" style = "stroke: Black;"/>
  <line x1="  2500" y1="   950" x2="  2600" y2="  1030" style = "stroke: Black;"/>
  <line x1="   750" y1="   270" x2="   900" y2="   270" style = "stroke: Black;"/>
  <line x1="  2500" y1="   990" x2="  2600" y2="  1030" style = "stroke: Black;"/>
  <line x1="   700" y1="   630" x2="   800" y2="   630" style = "stroke: Black;"/>
  <line x1="   400" y1="   870" x2="   500" y2="   870" style = "stroke: Black;"/>
  <line x1="   400" y1="  1110" x2="   450" y2="  1110" style = "stroke: Black;"/>
  <line x1="  1900" y1="    30" x2="  2000" y2="   190" style = "stroke: Black;"/>
  <line x1="  2150" y1="   270" x2="  2300" y2="   550" style = "stroke: Black;"/>
  <line x1="  2150" y1="   310" x2="  2300" y2="   550" style = "stroke: Black;"/>
  <line x1="  2150" y1="   350" x2="  2300" y2="   550" style = "stroke: Black;"/>
  <line x1="  2150" y1="   390" x2="  2300" y2="   550" style = "stroke: Black;"/>
  <line x1="  1900" y1="   630" x2="  2000" y2="   790" style = "stroke: Black;"/>
  <line x1="  1900" y1="    70" x2="  2000" y2="   190" style = "stroke: Black;"/>
  <line x1="  1900" y1="   110" x2="  2000" y2="   190" style = "stroke: Black;"/>
  <line x1="  1900" y1="   150" x2="  2000" y2="   190" style = "stroke: Black;"/>
  <line x1="  1900" y1="   190" x2="  2000" y2="   190" style = "stroke: Black;"/>
  <line x1="  2150" y1="   430" x2="  2300" y2="   550" style = "stroke: Black;"/>
  <line x1="  2150" y1="   470" x2="  2300" y2="   550" style = "stroke: Black;"/>
  <line x1="  2150" y1="   510" x2="  2300" y2="   550" style = "stroke: Black;"/>
  <line x1="  2150" y1="   550" x2="  2300" y2="   550" style = "stroke: Black;"/>
  <line x1="  1900" y1="   670" x2="  2000" y2="   790" style = "stroke: Black;"/>
  <line x1="  1900" y1="   710" x2="  2000" y2="   790" style = "stroke: Black;"/>
  <line x1="  1900" y1="   750" x2="  2000" y2="   790" style = "stroke: Black;"/>
  <line x1="  1900" y1="   790" x2="  2000" y2="   790" style = "stroke: Black;"/>
  <line x1="   200" y1="    30" x2="   175" y2="    30" style = "stroke: Black;"/>
  <line x1="   175" y1="    30" x2="   175" y2="     0" style = "stroke: Black;"/>
  <line x1="   175" y1="     0" x2="  2525" y2="     0" style = "stroke: Black;"/>
  <line x1="  2525" y1="     0" x2="  2525" y2="   190" style = "stroke: Black;"/>
  <line x1="  2525" y1="   190" x2="  2500" y2="   190" style = "stroke: Black;"/>
  <line x1="   200" y1="   270" x2="   175" y2="   270" style = "stroke: Black;"/>
  <line x1="   175" y1="   270" x2="   175" y2="   240" style = "stroke: Black;"/>
  <line x1="   175" y1="   240" x2="  2875" y2="   240" style = "stroke: Black;"/>
  <line x1="  2875" y1="   240" x2="  2875" y2="   550" style = "stroke: Black;"/>
  <line x1="  2875" y1="   550" x2="  2850" y2="   550" style = "stroke: Black;"/>
  <line x1="   200" y1="   630" x2="   175" y2="   630" style = "stroke: Black;"/>
  <line x1="   175" y1="   630" x2="   175" y2="   600" style = "stroke: Black;"/>
  <line x1="   175" y1="   600" x2="  2525" y2="   600" style = "stroke: Black;"/>
  <line x1="  2525" y1="   600" x2="  2525" y2="   790" style = "stroke: Black;"/>
  <line x1="  2525" y1="   790" x2="  2500" y2="   790" style = "stroke: Black;"/>
  <line x1="   200" y1="   870" x2="   175" y2="   870" style = "stroke: Black;"/>
  <line x1="   175" y1="   870" x2="   175" y2="   840" style = "stroke: Black;"/>
  <line x1="   175" y1="   840" x2="  3125" y2="   840" style = "stroke: Black;"/>
  <line x1="  3125" y1="   840" x2="  3125" y2="  1030" style = "stroke: Black;"/>
  <line x1="  3125" y1="  1030" x2="  3100" y2="  1030" style = "stroke: Black;"/>
  <line x1="   200" y1="  1110" x2="   175" y2="  1110" style = "stroke: Black;"/>
  <line x1="   175" y1="  1110" x2="   175" y2="  1080" style = "stroke: Black;"/>
  <line x1="   175" y1="  1080" x2="  2675" y2="  1080" style = "stroke: Black;"/>
  <line x1="  2675" y1="  1080" x2="  2675" y2="  1270" style = "stroke: Black;"/>
  <line x1="  2675" y1="  1270" x2="  2650" y2="  1270" style = "stroke: Black;"/>
  <text x="   200" y="  1560">Unused Non-Parent Objects:</text>
  <text x="   220" y="  1580">BOT_TOILET</text>
  <text x="   220" y="  1600">MID_TOILET</text>
  <text x="   220" y="  1620">TOP_TOILET</text>
  <text x="   220" y="  1640">OutdoorAir:Node</text>
  <text x="   220" y="  1660">VAV_BOT_COIL_SAT_SETPOINT</text>
  <text x="   220" y="  1680">VAV_MID_COIL_SAT_SETPOINT</text>
  <text x="   220" y="  1700">VAV_TOP_COIL_SAT_SETPOINT</text>
  <text x="   220" y="  1720">CHW_LOOP_SETPOINT_MANAGER</text>
  <text x="   220" y="  1740">CNDW_LOOP_SETPOINT_MANAGER</text>
  <text x="   220" y="  1760">CHW_LOOP_DEMAND_INLET_SETPOINT_MANAGER</text>
  <text x="   220" y="  1780">BOT_TOILET_EXHAUST_FAN</text>
  <text x="   220" y="  1800">MID_TOILET_EXHAUST_FAN</text>
  <text x="   220" y="  1820">TOP_TOILET_EXHAUST_FAN</text>
  <text x="   220" y="  1840">VAV_BOT_COIL_CONTROLLER</text>
  <text x="   220" y="  1860">VAV_MID_COIL_CONTROLLER</text>
  <text x="   220" y="  1880">VAV_TOP_COIL_CONTROLLER</text>
  <text x="   220" y="  1900">VAV_BOT_OA_CONTROLLER</text>
  <text x="   220" y="  1920">VAV_MID_OA_CONTROLLER</text>
  <text x="   220" y="  1940">VAV_TOP_OA_CONTROLLER</text>
  <text x="   200" y="  1980">
The following are not supported: objects related to controls or ZoneHVAC:IdealLoadsAirSystem</text>
</g>
</svg>
